<?xml version="1.0" encoding="utf-8"?>
<!-- Generator: Adobe Illustrator 19.0.0, SVG Export Plug-In . SVG Version: 6.00 Build 0)  -->
<svg version="1.1" id="Layer_1" xmlns="http://www.w3.org/2000/svg" xmlns:xlink="http://www.w3.org/1999/xlink" x="0px" y="0px"
	 viewBox="0 0 246.9 170.2" style="enable-background:new 0 0 246.9 170.2;" xml:space="preserve">
<style type="text/css">
	.st0{fill:#22507B;}
	.st1{fill:#3177B8;}
	.st2{fill:#5B9AD3;}
	.st3{fill:none;stroke:#020303;stroke-width:3.9153;stroke-linecap:round;stroke-linejoin:round;stroke-miterlimit:10;}
</style>
<g id="ICON_2_">
	<g id="dishes_2_">
		<ellipse id="XMLID_22_" class="st0" cx="33.3" cy="100.2" rx="17.6" ry="17.6"/>
		<ellipse id="XMLID_21_" class="st0" cx="61.6" cy="54.8" rx="17.6" ry="17.6"/>
		<ellipse id="XMLID_20_" class="st0" cx="108.5" cy="37.3" rx="17.6" ry="17.6"/>
		<ellipse id="XMLID_19_" class="st0" cx="163.9" cy="41.2" rx="17.6" ry="17.6"/>
		<ellipse id="XMLID_18_" class="st0" cx="206.9" cy="72.4" rx="17.6" ry="17.6"/>
		<ellipse id="XMLID_17_" class="st0" cx="205.1" cy="125.7" rx="17.6" ry="17.6"/>
		<ellipse id="XMLID_16_" class="st0" cx="138.1" cy="120" rx="17.6" ry="17.6"/>
		<ellipse id="XMLID_15_" class="st0" cx="79.1" cy="140.5" rx="17.6" ry="17.6"/>
		<ellipse id="XMLID_14_" class="st1" cx="27.2" cy="65.1" rx="12.6" ry="12.6"/>
		<ellipse id="XMLID_13_" class="st1" cx="171.7" cy="94.8" rx="15.3" ry="15.3"/>
		
			<ellipse id="XMLID_12_" transform="matrix(-0.9778 -0.2095 0.2095 -0.9778 193.3912 301.3415)" class="st2" cx="112.7" cy="140.4" rx="10.1" ry="10"/>
		
			<ellipse id="XMLID_11_" transform="matrix(-0.9778 -0.2095 0.2095 -0.9778 307.8844 298.4979)" class="st2" cx="169.8" cy="132.9" rx="10.1" ry="10"/>
		
			<ellipse id="XMLID_10_" transform="matrix(-0.9778 -0.2095 0.2095 -0.9778 426.2529 244.4664)" class="st2" cx="226.1" cy="99.7" rx="10.1" ry="10"/>
		
			<ellipse id="XMLID_9_" transform="matrix(-0.9778 -0.2095 0.2095 -0.9778 381.0825 123.238)" class="st2" cx="197.1" cy="41.4" rx="10.1" ry="10"/>
		<ellipse id="XMLID_8_" class="st1" cx="98.4" cy="75.3" rx="15.3" ry="15.3"/>
		
			<ellipse id="XMLID_7_" transform="matrix(-0.9778 -0.2095 0.2095 -0.9778 270.7157 71.2931)" class="st2" cx="139.1" cy="21.3" rx="10.1" ry="10"/>
		
			<ellipse id="XMLID_6_" transform="matrix(-0.9778 -0.2095 0.2095 -0.9778 179.8264 249.7508)" class="st2" cx="103.1" cy="115.4" rx="10.1" ry="10"/>
		
			<ellipse id="XMLID_5_" transform="matrix(-0.9778 -0.2095 0.2095 -0.9778 147.0872 67.9265)" class="st2" cx="77.1" cy="26.2" rx="10.1" ry="10"/>
		
			<ellipse id="XMLID_4_" transform="matrix(-0.9778 -0.2095 0.2095 -0.9778 111.475 191.0722)" class="st2" cx="65.9" cy="89.6" rx="10.1" ry="10"/>
		<ellipse id="XMLID_3_" class="st1" cx="134.8" cy="65" rx="12.6" ry="12.6"/>
	</g>
	<path id="XMLID_2_" class="st3" d="M51.8,132c-26.2,12.3-75.1-34.2-33.9-85.8C59.1-5.3,133.6-2.4,169.9,8.4
		c46.8,13.9,66.9,43.8,73.9,82.4c2,10.8,9.3,70.3-64.3,59.5c-36-5.3-49.8-0.4-61,6.7c-36.1,23-76.4,8.2-68.3-20.8
		c7-25.2,42.6-35.2,54.7-40.2c19-7.7,40.1-8.7,45.6-11.8"/>
</g>
</svg>
