<?xml version="1.0" encoding="utf-8"?>
<!-- Generator: Adobe Illustrator 19.0.0, SVG Export Plug-In . SVG Version: 6.00 Build 0)  -->
<svg version="1.1" id="Ebene_1" xmlns="http://www.w3.org/2000/svg" xmlns:xlink="http://www.w3.org/1999/xlink" x="0px" y="0px"
	 viewBox="80 65.9 416.8 127.1" style="enable-background:new 80 65.9 416.8 127.1;" xml:space="preserve">
<style type="text/css">
	.st0{fill:#006DB6;}
	.st1{fill:#1D1D1B;}
</style>
<g>
	<g>
		<path class="st0" d="M212.4,103.7h-18.9c0-10.5-8.5-18.9-19-18.9c-10.4,0-18.9,8.5-18.9,18.9h-18.9c0-20.9,17-37.8,37.8-37.8
			C195.4,65.8,212.4,82.8,212.4,103.7z"/>
		<path class="st0" d="M231.4,149.1c-20.9,0-37.8-17-37.8-37.8h18.9c0,10.4,8.5,18.9,19,18.9c10.4,0,18.9-8.5,18.9-18.9h18.8
			C269.2,132.1,252.2,149.1,231.4,149.1z"/>
		<rect x="80" y="84.8" class="st0" width="37.8" height="18.9"/>
		<path class="st0" d="M117.8,149.1c-20.9,0-37.8-17-37.8-37.8h18.9c0,10.4,8.5,18.9,19,18.9c10.4,0,19-8.5,19-18.9h18.9
			C155.6,132.1,138.7,149.1,117.8,149.1z"/>
	</g>
	<g>
		<g>
			<path class="st1" d="M86.5,170.5H80v-2.3h15.8v2.3h-6.6v17.2h-2.7V170.5z"/>
			<path class="st1" d="M98.3,187.6h-2.6v-13.5h2.6v2.6h0.1c0.4-1.9,2.1-2.8,4-2.8c0.3,0,0.6,0,0.9,0v2.4c-0.4-0.1-0.8-0.1-1.1-0.1
				c-3.2,0.1-3.8,1.8-3.8,4.7L98.3,187.6L98.3,187.6z"/>
			<path class="st1" d="M113.5,179.3c0-2.3-0.1-3.7-2.9-3.7c-1.3,0-2.5,0.8-2.5,2.2h-2.7c0.1-3,2.5-4,5.1-4c2.8,0,5.5,0.8,5.5,4.6
				v6.5c0,0.6,0,1.7,0.1,2.9h-1.7c-0.2,0-0.7,0.1-0.7-0.2c-0.1-0.6-0.1-1.2-0.1-1.8h-0.1c-0.8,1.7-2.3,2.4-4.2,2.4
				c-2.3,0-4.7-1.2-4.7-3.9c0-3.8,3.4-4.9,6.6-4.9h2.3L113.5,179.3L113.5,179.3z M111,181c-1.6,0.1-3.6,0.6-3.6,2.6
				c0,1.7,1.2,2.5,2.7,2.5c3,0,3.6-2.6,3.5-5.1H111z"/>
			<path class="st1" d="M122.6,176.1L122.6,176.1c0.9-1.7,2.8-2.4,4.2-2.4c0.9,0,5.1,0.2,5.1,4.6v9.4h-2.6v-8.5
				c0-2.2-0.9-3.5-3.1-3.5c0,0-1.4-0.1-2.5,1c-0.4,0.4-1.1,1-1.1,3.6v7.4H120v-13.5h2.5L122.6,176.1L122.6,176.1z"/>
			<path class="st1" d="M140.4,173.7c2.6,0,5.5,1.1,5.3,4.2H143c0.1-1.7-1.2-2.3-2.7-2.3c-1.4,0-2.5,0.6-2.5,2.2
				c0,1.5,2.3,1.6,3.3,1.9c2.3,0.8,4.9,1,4.9,4.1c0,3.3-3.2,4.3-6,4.3s-5.2-1.3-5.2-4.4h2.7c0.1,1.7,1.2,2.6,2.8,2.6
				c1.5,0,3-0.6,3-2.3c0-3-8.2-0.8-8.2-6C135,174.9,137.9,173.7,140.4,173.7z"/>
			<path class="st1" d="M149.1,187.6v-19.5h2.6v19.5H149.1z"/>
			<path class="st1" d="M163.9,179.3c0-2.3-0.1-3.7-2.9-3.7c-1.3,0-2.5,0.8-2.5,2.2h-2.7c0.1-3,2.5-4,5.1-4c2.8,0,5.5,0.8,5.5,4.6
				v6.5c0,0.6,0,1.7,0.1,2.9h-1.7c-0.2,0-0.7,0.1-0.7-0.2c-0.1-0.6-0.1-1.2-0.1-1.8h-0.1c-0.8,1.7-2.3,2.4-4.2,2.4
				c-2.3,0-4.7-1.2-4.7-3.9c0-3.8,3.4-4.9,6.6-4.9h2.3L163.9,179.3L163.9,179.3z M161.3,181c-1.6,0.1-3.6,0.6-3.6,2.6
				c0,1.7,1.2,2.5,2.7,2.5c3,0,3.6-2.6,3.5-5.1H161.3z"/>
			<path class="st1" d="M171.1,174.1v-2.9l2.6-0.8v3.7l3.1-0.1v1.9h-3.1v8.7c0,1,0.8,1.4,1.7,1.4c0.4,0,0.9-0.1,1.3-0.2v2
				c-0.6,0-1.2,0.2-1.8,0.2s-1.1,0-1.7-0.1c-0.4-0.1-1.1-0.3-1.5-0.9c-0.5-0.6-0.6-0.7-0.6-2.5v-8.6h-2.3V174L171.1,174.1z"/>
			<path class="st1" d="M179.8,168.1h3.1v2.8h-3.1V168.1z M180,187.6v-13.5h2.6v13.5H180z"/>
			<path class="st1" d="M199.5,180.9c0,4.2-2.3,7.2-6.7,7.2c-4.5,0-6.7-3-6.7-7.2s2.3-7.2,6.7-7.2S199.5,176.6,199.5,180.9z
				 M192.8,186.2c3,0,4-2.4,4-5.3s-1-5.3-4-5.3c-3.1,0-4,2.4-4,5.3C188.7,183.7,189.7,186.2,192.8,186.2z"/>
			<path class="st1" d="M205.4,176.1L205.4,176.1c0.9-1.7,2.8-2.4,4.2-2.4c0.9,0,5.1,0.2,5.1,4.6v9.4h-2.6v-8.5
				c0-2.2-0.9-3.5-3.1-3.5c0,0-1.4-0.1-2.5,1c-0.4,0.4-1.1,1-1.1,3.6v7.4h-2.6v-13.5h2.5L205.4,176.1L205.4,176.1z"/>
			<path class="st1" d="M226.7,179.3c0-2.3-0.1-3.7-2.9-3.7c-1.3,0-2.5,0.8-2.5,2.2h-2.7c0.1-3,2.5-4,5.1-4c2.8,0,5.5,0.8,5.5,4.6
				v6.5c0,0.6,0,1.7,0.1,2.9h-1.7c-0.2,0-0.7,0.1-0.7-0.2c-0.1-0.6-0.1-1.2-0.1-1.8h-0.1c-0.8,1.7-2.3,2.4-4.2,2.4
				c-2.3,0-4.7-1.2-4.7-3.9c0-3.8,3.4-4.9,6.6-4.9h2.3L226.7,179.3L226.7,179.3z M224.2,181c-1.6,0.1-3.6,0.6-3.6,2.6
				c0,1.7,1.2,2.5,2.7,2.5c3,0,3.6-2.6,3.5-5.1H224.2z"/>
			<path class="st1" d="M233.4,187.6v-19.5h2.6v19.5H233.4z"/>
			<path class="st1" d="M263.1,168.1v19.5h-3.3l-9.9-16.5h-0.1v16.5h-2.4v-19.5h3.7l9.5,16.1h0.1v-16.1H263.1z"/>
			<path class="st1" d="M269.4,181.3c-0.2,2.4,0.8,4.8,3.4,4.8c2,0,3-0.8,3.3-2.8h2.7c-0.4,3.1-2.8,4.6-6,4.6
				c-4.3,0-6.1-3.1-6.1-7.1s2-7.3,6.3-7.3c4,0.1,6,2.6,6,6.4v1.3h-9.6L269.4,181.3L269.4,181.3z M276.2,179.6c0.1-2.3-1-4-3.5-4
				c-2.1,0-3.4,1.8-3.4,4H276.2z"/>
			<path class="st1" d="M291.3,174.1h2.6v13.5h-2.5v-2h-0.1c-1,1.7-2.8,2.4-4.6,2.4c-2.8,0-4.5-2.2-4.5-4.9V174h2.6v8
				c0,2.3,0.5,4.1,3,4.1c1.1,0,2.5-0.5,3-1.9c0.5-1.3,0.5-2.9,0.5-3.2V174.1z"/>
			<path class="st1" d="M300.8,187.6h-2.6v-13.5h2.6v2.6h0.1c0.4-1.9,2.1-2.8,4-2.8c0.3,0,0.6,0,0.9,0v2.4c-0.3-0.1-0.8-0.1-1.1-0.1
				c-3.2,0.1-3.8,1.8-3.8,4.7v6.7L300.8,187.6L300.8,187.6z"/>
			<path class="st1" d="M320.7,180.9c0,4.2-2.3,7.2-6.7,7.2c-4.5,0-6.7-3-6.7-7.2s2.3-7.2,6.7-7.2S320.7,176.6,320.7,180.9z
				 M313.9,186.2c3,0,4-2.4,4-5.3s-1-5.3-4-5.3c-3.1,0-4,2.4-4,5.3C309.9,183.7,310.9,186.2,313.9,186.2z"/>
			<path class="st1" d="M326.5,176L326.5,176c0.9-1.7,2.5-2.3,3.9-2.3c2.6,0,4.1,0.9,4.8,2.5c1-1.7,2.5-2.5,4.5-2.5c3.1,0,5,2,5,4.4
				v9.6h-2.5v-8c0-1.9-0.3-4-3.3-4c-0.8,0-2.5,0.4-3,2.1c-0.4,1.2-0.3,2.6-0.3,2.9v7H333v-8c0-2.3-0.5-4-3-4c-1.1,0-2.6,0.4-3.3,2.2
				c-0.3,0.7-0.2,2.5-0.2,2.8v7h-2.6v-13.5h2.5L326.5,176L326.5,176z"/>
			<path class="st1" d="M361.6,180.9c0,4.2-2.3,7.2-6.7,7.2c-4.5,0-6.7-3-6.7-7.2s2.3-7.2,6.7-7.2S361.6,176.6,361.6,180.9z
				 M354.8,186.2c3.1,0,4-2.4,4-5.3s-1-5.3-4-5.3s-4,2.4-4,5.3C350.8,183.7,351.8,186.2,354.8,186.2z"/>
			<path class="st1" d="M374.3,168.1h2.6v17.1c0,0.8,0.1,1.6,0.1,2.4h-2.6l-0.1-2v-0.1h-0.1c-0.9,1.9-2.7,2.6-4.7,2.6
				c-4,0-5.6-3.7-5.6-7.2c0-3.7,1.9-7.2,6.1-7.2c1.7,0,3.4,0.6,4.2,2.2h0.1V168.1z M370.5,186.3c3.1,0,3.8-2.9,3.8-5.4
				s-0.9-5.4-3.8-5.4c-3.1,0-3.8,2.8-3.8,5.4C366.7,183.4,367.6,186.3,370.5,186.3z"/>
			<path class="st1" d="M382.5,181.3c-0.2,2.4,0.8,4.8,3.4,4.8c2,0,3-0.8,3.3-2.8h2.7c-0.4,3.1-2.8,4.6-6,4.6
				c-4.3,0-6.1-3.1-6.1-7.1s2-7.3,6.3-7.3c4,0.1,6,2.6,6,6.4v1.3h-9.6L382.5,181.3L382.5,181.3z M389.4,179.6c0.1-2.3-1-4-3.5-4
				c-2.1,0-3.4,1.8-3.4,4H389.4z"/>
			<path class="st1" d="M395.4,187.6v-19.5h2.6v19.5H395.4z"/>
			<path class="st1" d="M402.1,168.1h3.1v2.8h-3.1V168.1z M402.4,187.6v-13.5h2.6v13.5H402.4z"/>
			<path class="st1" d="M411.8,176.1L411.8,176.1c0.9-1.7,2.8-2.4,4.2-2.4c0.9,0,5.1,0.2,5.1,4.6v9.4h-2.6v-8.5
				c0-2.2-0.9-3.5-3.1-3.5c0,0-1.4-0.1-2.5,1c-0.4,0.4-1.1,1-1.1,3.6v7.4h-2.6v-13.5h2.5L411.8,176.1L411.8,176.1z"/>
			<path class="st1" d="M434.6,174.1h2.6c-0.1,0.8-0.2,1.6-0.2,2.4v9.5c0,5-2.2,7-7.1,7c-2.9,0-5-1.2-5-4.4h2.7
				c0.1,1.8,1.3,2.5,3.2,2.5c3.6,0,3.6-3,3.7-6.1h-0.1c-0.8,1.6-2.8,2.3-4.5,2.3c-4.1,0-5.8-2.9-5.8-6.7c0-3.9,2.2-7,6.3-7
				c1.3,0,2.8,0.5,3.6,1.8c0.1,0.1,0.4,0.8,0.4,0.6L434.6,174.1z M430.7,185.5c2.8,0,3.8-2.4,3.8-5s-1-5-3.8-5c-3,0-3.8,2.9-3.8,5
				C426.9,182.7,427.7,185.5,430.7,185.5z"/>
			<path class="st1" d="M464.1,179.9c0.1,5-2.6,8.1-7.9,8.1c-5.3,0-7.9-3.1-7.9-8.1v-11.8h2.7v12.4c0.1,3.3,2.1,5.2,5.2,5.2
				c3.1,0,5.1-1.8,5.2-5.2v-12.4h2.7V179.9z"/>
			<path class="st1" d="M470.6,176.1L470.6,176.1c0.9-1.7,2.8-2.4,4.2-2.4c0.9,0,5.1,0.2,5.1,4.6v9.4h-2.6v-8.5
				c0-2.2-0.9-3.5-3.1-3.5c0,0-1.4-0.1-2.5,1c-0.4,0.4-1.1,1-1.1,3.6v7.4H468v-13.5h2.5L470.6,176.1L470.6,176.1z"/>
			<path class="st1" d="M483.9,168.1h3.1v2.8h-3.1V168.1z M484.1,187.6v-13.5h2.6v13.5H484.1z"/>
			<path class="st1" d="M491.1,174.1v-2.9l2.6-0.8v3.7l3.1-0.1v1.9h-3.1v8.7c0,1,0.8,1.4,1.7,1.4c0.4,0,0.9-0.1,1.3-0.2v2
				c-0.6,0-1.2,0.2-1.8,0.2s-1.1,0-1.7-0.1c-0.4-0.1-1.1-0.3-1.5-0.9c-0.5-0.6-0.6-0.7-0.6-2.5v-8.6h-2.3V174L491.1,174.1z"/>
		</g>
	</g>
</g>
</svg>
