<?xml version="1.0" encoding="utf-8"?>
<!-- Generator: Adobe Illustrator 21.0.0, SVG Export Plug-In . SVG Version: 6.00 Build 0)  -->
<svg version="1.1" id="Ebene_1" xmlns="http://www.w3.org/2000/svg" xmlns:xlink="http://www.w3.org/1999/xlink" x="0px" y="0px"
	 viewBox="0 0 541.981 407.23" enable-background="new 0 0 541.981 407.23" xml:space="preserve">
<g>
	<g id="Source">
		<g>
			<path d="M40.198,221.206H0v-7.654h89.2v7.654H49.002v118.456h-8.805V221.206z"/>
			<path d="M173.804,296.413h-49.959l-14.931,43.249h-8.805l44.408-126.11h8.805l44.408,126.11h-9.188L173.804,296.413z
				 M171.316,288.949l-8.04-23.538c-2.554-7.525-4.976-14.735-7.274-21.624c-2.297-6.889-4.532-14.224-6.7-22.007h-0.765
				c-2.171,7.783-4.403,15.118-6.699,22.007c-2.297,6.889-4.723,14.099-7.274,21.624l-8.039,23.538H171.316z"/>
			<path d="M229.311,213.552h34.455c7.017,0,13.303,0.607,18.854,1.818c5.552,1.214,10.271,3.223,14.165,6.028
				c3.891,2.807,6.857,6.443,8.901,10.908c2.039,4.466,3.063,9.951,3.063,16.457c0,12.375-3.957,21.595-11.868,27.653
				c-7.914,6.061-18.95,9.089-33.115,9.089h-25.65v54.157h-8.805V213.552z M261.661,278.041c12.887,0,22.458-2.296,28.712-6.889
				c6.251-4.592,9.379-12.056,9.379-22.389c0-5.359-0.798-9.79-2.393-13.3c-1.597-3.507-3.957-6.345-7.082-8.516
				c-3.129-2.168-7.083-3.699-11.868-4.593c-4.785-0.89-10.37-1.339-16.749-1.339h-23.544v57.026H261.661z"/>
			<path d="M394.886,296.413h-49.959l-14.931,43.249h-8.805l44.408-126.11h8.805l44.408,126.11h-9.188L394.886,296.413z
				 M392.398,288.949l-8.04-23.538c-2.554-7.525-4.976-14.735-7.274-21.624c-2.297-6.889-4.532-14.224-6.7-22.007h-0.765
				c-2.171,7.783-4.403,15.118-6.699,22.007c-2.297,6.889-4.723,14.099-7.274,21.624l-8.039,23.538H392.398z"/>
			<path d="M446.374,316.889c4.594,5.233,10.078,9.378,16.462,12.439c6.379,3.061,13.207,4.592,20.482,4.592
				c9.696,0,17.353-2.326,22.97-6.984c5.614-4.656,8.422-10.747,8.422-18.276c0-3.953-0.607-7.272-1.818-9.951
				c-1.214-2.679-2.841-5.005-4.881-6.985c-2.042-1.976-4.435-3.698-7.178-5.167c-2.746-1.465-5.647-2.9-8.71-4.305l-19.142-8.611
				c-2.808-1.149-5.712-2.551-8.709-4.211c-3-1.656-5.743-3.732-8.231-6.219s-4.564-5.421-6.221-8.803
				c-1.661-3.379-2.489-7.43-2.489-12.151c0-4.593,0.925-8.771,2.775-12.535c1.849-3.761,4.403-7.015,7.657-9.76
				c3.254-2.741,7.145-4.88,11.676-6.41c4.529-1.531,9.409-2.297,14.643-2.297c7.656,0,14.452,1.501,20.386,4.497
				c5.934,2.999,10.814,6.54,14.642,10.621l-4.976,5.933c-3.703-3.953-8.04-7.111-13.016-9.473c-4.977-2.36-10.657-3.54-17.036-3.54
				c-8.423,0-15.188,2.042-20.29,6.123c-5.106,4.085-7.657,9.568-7.657,16.458c0,3.701,0.699,6.826,2.105,9.377
				c1.403,2.553,3.189,4.755,5.36,6.602c2.168,1.851,4.529,3.445,7.083,4.784c2.551,1.34,4.976,2.521,7.273,3.541l19.142,8.419
				c3.571,1.531,6.954,3.254,10.145,5.167c3.188,1.914,5.996,4.148,8.422,6.698c2.423,2.553,4.37,5.583,5.838,9.09
				c1.466,3.51,2.202,7.688,2.202,12.534c0,4.85-0.957,9.347-2.872,13.492c-1.914,4.147-4.626,7.72-8.134,10.716
				c-3.511,2.999-7.753,5.359-12.73,7.081c-4.976,1.722-10.527,2.583-16.652,2.583c-9.188,0-17.356-1.755-24.501-5.262
				c-7.149-3.507-13.208-8.067-18.184-13.683L446.374,316.889z"/>
		</g>
	</g>
	<g id="ICON_2_">
		<g id="dishes_2_">
			
				<ellipse transform="matrix(0.2095 -0.9778 0.9778 0.2095 149.6577 385.5709)" fill="#214F7A" cx="313.3" cy="100.224" rx="17.583" ry="17.588"/>
			
				<ellipse transform="matrix(0.2095 -0.9778 0.9778 0.2095 216.4241 377.4766)" fill="#214F7A" cx="341.678" cy="54.882" rx="17.583" ry="17.587"/>
			
				<ellipse transform="matrix(0.2095 -0.9778 0.9778 0.2095 270.7347 409.4839)" fill="#214F7A" cx="388.624" cy="37.298" rx="17.583" ry="17.587"/>
			
				<ellipse transform="matrix(0.2095 -0.9778 0.9778 0.2095 310.4634 466.6678)" fill="#214F7A" cx="443.86" cy="41.316" rx="17.583" ry="17.588"/>
			
				<ellipse transform="matrix(0.2095 -0.9778 0.9778 0.2095 314.1227 533.4641)" fill="#214F7A" cx="487.005" cy="72.45" rx="17.583" ry="17.587"/>
			
				<ellipse transform="matrix(0.2095 -0.9778 0.9778 0.2095 260.5646 573.8589)" fill="#214F7A" cx="485.198" cy="125.778" rx="17.584" ry="17.588"/>
			
				<ellipse transform="matrix(0.2095 -0.9778 0.9778 0.2095 213.1921 503.7993)" fill="#214F7A" cx="418.199" cy="120.039" rx="17.583" ry="17.588"/>
			
				<ellipse transform="matrix(0.2095 -0.9778 0.9778 0.2095 146.4956 462.2372)" fill="#214F7A" cx="359.144" cy="140.51" rx="17.584" ry="17.588"/>
			
				<ellipse transform="matrix(0.2096 -0.9778 0.9778 0.2096 179.1719 351.9412)" fill="#2F76B7" cx="307.266" cy="65.151" rx="12.56" ry="12.563"/>
			
				<ellipse transform="matrix(0.2095 -0.9778 0.9778 0.2095 264.3863 516.7995)" fill="#2F76B7" cx="451.833" cy="94.877" rx="15.258" ry="15.262"/>
			
				<ellipse transform="matrix(0.2095 -0.9778 0.9778 0.2095 172.9975 495.0179)" fill="#5B9AD3" cx="392.67" cy="140.509" rx="10.048" ry="10.05"/>
			
				<ellipse transform="matrix(0.2095 -0.9778 0.9778 0.2095 225.5605 544.9529)" fill="#5B9AD3" cx="449.819" cy="132.973" rx="10.048" ry="10.05"/>
			
				<ellipse transform="matrix(0.2095 -0.9778 0.9778 0.2095 302.5514 573.674)" fill="#5B9AD3" cx="506.08" cy="99.716" rx="10.049" ry="10.05"/>
			
				<ellipse transform="matrix(0.2095 -0.9778 0.9778 0.2095 336.6266 499.3094)" fill="#5B9AD3" cx="477.123" cy="41.46" rx="10.048" ry="10.05"/>
			
				<ellipse transform="matrix(0.2095 -0.9778 0.9778 0.2095 225.455 429.6778)" fill="#2F76B7" cx="378.483" cy="75.395" rx="15.258" ry="15.262"/>
			
				<ellipse transform="matrix(0.2095 -0.9778 0.9778 0.2095 310.4777 426.7826)" fill="#5B9AD3" cx="419.206" cy="21.359" rx="10.048" ry="10.05"/>
			
				<ellipse transform="matrix(0.2095 -0.9778 0.9778 0.2095 190.0139 465.9067)" fill="#5B9AD3" cx="383.158" cy="115.435" rx="10.049" ry="10.05"/>
			
				<ellipse transform="matrix(0.2095 -0.9778 0.9778 0.2095 256.683 369.9969)" fill="#5B9AD3" cx="357.186" cy="26.239" rx="10.049" ry="10.05"/>
			
				<ellipse transform="matrix(0.2095 -0.9778 0.9778 0.2095 185.7716 409.1197)" fill="#5B9AD3" cx="345.913" cy="89.666" rx="10.048" ry="10.051"/>
			
				<ellipse transform="matrix(0.2095 -0.9778 0.9778 0.2095 264.3347 457.1234)" fill="#2F76B7" cx="414.885" cy="65.078" rx="12.559" ry="12.562"/>
		</g>
		
			<path fill="none" stroke="#000100" stroke-width="3.9153" stroke-linecap="round" stroke-linejoin="round" stroke-miterlimit="10" d="
			M331.777,132.028c-26.156,12.343-75.122-34.244-33.857-85.801C339.164-5.304,413.621-2.385,449.902,8.398
			c46.753,13.895,66.937,43.821,73.946,82.362c1.958,10.766,9.266,70.317-64.251,59.541c-35.96-5.271-49.788-0.407-61.018,6.749
			c-36.115,23.017-76.35,8.239-68.278-20.842c7.005-25.235,42.558-35.25,54.657-40.157c18.982-7.698,40.067-8.668,45.627-11.837"/>
	</g>
</g>
<g>
	<path d="M4.669,387.492H0.564v-2.129h10.728v2.129H7.188v12.073H4.669V387.492z"/>
	<path d="M12.486,388.903h2.062l0.174,1.89h0.087c0.376-0.695,0.833-1.228,1.368-1.597c0.535-0.369,1.085-0.554,1.65-0.554
		c0.506,0,0.912,0.072,1.216,0.217l-0.434,2.172c-0.188-0.058-0.362-0.101-0.521-0.13s-0.354-0.044-0.586-0.044
		c-0.42,0-0.862,0.163-1.325,0.489c-0.463,0.325-0.861,0.894-1.194,1.704v6.515h-2.497V388.903z"/>
	<path d="M19.543,396.699c0-1.144,0.499-2.026,1.498-2.649c0.999-0.622,2.591-1.057,4.777-1.303c0-0.275-0.036-0.539-0.108-0.793
		c-0.073-0.253-0.185-0.478-0.337-0.673c-0.152-0.195-0.347-0.348-0.586-0.456s-0.54-0.163-0.901-0.163
		c-0.536,0-1.053,0.102-1.553,0.304c-0.5,0.203-0.981,0.449-1.444,0.738l-0.912-1.672c0.593-0.376,1.256-0.702,1.987-0.977
		c0.731-0.275,1.523-0.413,2.378-0.413c1.346,0,2.345,0.395,2.997,1.184s0.978,1.93,0.978,3.42v6.319h-2.042l-0.195-1.173h-0.065
		c-0.478,0.405-0.988,0.746-1.531,1.021c-0.543,0.275-1.133,0.413-1.77,0.413c-0.941,0-1.705-0.286-2.291-0.857
		C19.836,398.396,19.543,397.64,19.543,396.699z M21.976,396.504c0,0.478,0.141,0.825,0.423,1.042s0.647,0.326,1.097,0.326
		c0.434,0,0.832-0.102,1.194-0.305c0.361-0.202,0.738-0.492,1.129-0.868v-2.389c-0.724,0.087-1.332,0.203-1.824,0.348
		s-0.887,0.308-1.183,0.488c-0.297,0.181-0.51,0.388-0.641,0.619S21.976,396.243,21.976,396.504z"/>
	<path d="M31.356,388.903h2.062l0.174,1.434h0.087c0.478-0.464,0.995-0.861,1.553-1.194c0.557-0.333,1.205-0.5,1.943-0.5
		c1.144,0,1.976,0.366,2.498,1.097c0.521,0.731,0.782,1.777,0.782,3.138v6.688h-2.498v-6.362c0-0.883-0.13-1.506-0.391-1.868
		c-0.261-0.361-0.688-0.542-1.281-0.542c-0.463,0-0.873,0.112-1.227,0.336c-0.355,0.225-0.756,0.554-1.205,0.988v7.448h-2.497
		V388.903z"/>
	<path d="M43.625,396.742c0.478,0.377,0.952,0.67,1.422,0.88c0.47,0.21,0.98,0.314,1.531,0.314c0.579,0,1.006-0.119,1.281-0.358
		c0.275-0.238,0.413-0.546,0.413-0.923c0-0.217-0.065-0.408-0.195-0.575c-0.13-0.166-0.304-0.314-0.521-0.445
		c-0.217-0.13-0.463-0.249-0.738-0.358c-0.275-0.108-0.55-0.221-0.825-0.336c-0.347-0.131-0.702-0.282-1.064-0.456
		s-0.684-0.384-0.966-0.63s-0.514-0.532-0.695-0.857c-0.181-0.326-0.271-0.713-0.271-1.162c0-0.941,0.348-1.708,1.042-2.302
		s1.643-0.891,2.845-0.891c0.738,0,1.404,0.131,1.998,0.391c0.594,0.261,1.107,0.558,1.542,0.891l-1.151,1.521
		c-0.377-0.275-0.757-0.496-1.14-0.663c-0.384-0.166-0.786-0.249-1.205-0.249c-0.536,0-0.931,0.112-1.184,0.336
		c-0.253,0.225-0.38,0.504-0.38,0.836c0,0.218,0.061,0.402,0.185,0.554c0.123,0.152,0.286,0.286,0.488,0.402
		s0.438,0.225,0.706,0.325c0.268,0.102,0.546,0.203,0.836,0.305c0.362,0.13,0.724,0.278,1.086,0.445
		c0.361,0.166,0.691,0.372,0.988,0.618c0.296,0.247,0.536,0.547,0.717,0.901c0.181,0.355,0.271,0.778,0.271,1.271
		c0,0.464-0.091,0.894-0.271,1.292c-0.181,0.398-0.445,0.746-0.793,1.042c-0.347,0.297-0.782,0.532-1.303,0.706
		s-1.115,0.261-1.781,0.261c-0.738,0-1.466-0.142-2.182-0.424c-0.717-0.282-1.335-0.633-1.857-1.053L43.625,396.742z"/>
	<path d="M52.876,384.234h2.497v12.726c0,0.304,0.058,0.518,0.174,0.641c0.116,0.123,0.239,0.185,0.369,0.185
		c0.058,0,0.112,0,0.163,0s0.126-0.015,0.228-0.044l0.326,1.867c-0.333,0.145-0.774,0.218-1.325,0.218
		c-0.897,0-1.527-0.268-1.889-0.804c-0.362-0.535-0.542-1.267-0.542-2.193V384.234z"/>
	<path d="M58.305,396.699c0-1.144,0.499-2.026,1.498-2.649c0.999-0.622,2.591-1.057,4.777-1.303c0-0.275-0.036-0.539-0.108-0.793
		c-0.073-0.253-0.185-0.478-0.337-0.673c-0.152-0.195-0.347-0.348-0.586-0.456s-0.54-0.163-0.901-0.163
		c-0.536,0-1.053,0.102-1.553,0.304c-0.5,0.203-0.981,0.449-1.444,0.738l-0.912-1.672c0.593-0.376,1.256-0.702,1.987-0.977
		c0.731-0.275,1.523-0.413,2.378-0.413c1.346,0,2.345,0.395,2.997,1.184s0.978,1.93,0.978,3.42v6.319h-2.042l-0.195-1.173h-0.065
		c-0.478,0.405-0.988,0.746-1.531,1.021c-0.543,0.275-1.133,0.413-1.77,0.413c-0.941,0-1.705-0.286-2.291-0.857
		C58.598,398.396,58.305,397.64,58.305,396.699z M60.737,396.504c0,0.478,0.141,0.825,0.423,1.042s0.647,0.326,1.097,0.326
		c0.434,0,0.832-0.102,1.194-0.305c0.361-0.202,0.738-0.492,1.129-0.868v-2.389c-0.724,0.087-1.332,0.203-1.824,0.348
		s-0.887,0.308-1.183,0.488c-0.297,0.181-0.51,0.388-0.641,0.619S60.737,396.243,60.737,396.504z"/>
	<path d="M70.487,390.879h-1.521v-1.867l1.65-0.108l0.304-2.91h2.084v2.91h2.714v1.976h-2.714v5.082c0,1.245,0.5,1.867,1.499,1.867
		c0.188,0,0.38-0.021,0.576-0.065c0.195-0.043,0.373-0.101,0.532-0.174l0.435,1.847c-0.29,0.101-0.619,0.191-0.988,0.271
		c-0.369,0.079-0.764,0.119-1.184,0.119c-0.623,0-1.147-0.095-1.574-0.282c-0.427-0.188-0.774-0.452-1.042-0.793
		c-0.268-0.34-0.463-0.745-0.586-1.216c-0.124-0.471-0.185-0.995-0.185-1.574V390.879z"/>
	<path d="M79.216,387.036c-0.449,0-0.818-0.131-1.107-0.392c-0.29-0.26-0.435-0.601-0.435-1.021s0.145-0.763,0.435-1.031
		c0.29-0.268,0.659-0.401,1.107-0.401s0.818,0.134,1.107,0.401c0.29,0.269,0.434,0.611,0.434,1.031s-0.145,0.761-0.434,1.021
		C80.034,386.905,79.665,387.036,79.216,387.036z M77.957,388.903h2.497v10.662h-2.497V388.903z"/>
	<path d="M82.951,394.245c0-0.883,0.138-1.672,0.413-2.367c0.275-0.694,0.648-1.281,1.119-1.759c0.47-0.478,1.01-0.843,1.618-1.097
		c0.608-0.253,1.245-0.38,1.911-0.38c0.666,0,1.306,0.127,1.921,0.38c0.615,0.254,1.154,0.619,1.618,1.097
		c0.463,0.478,0.836,1.064,1.118,1.759c0.282,0.695,0.423,1.484,0.423,2.367s-0.141,1.672-0.423,2.367
		c-0.282,0.694-0.655,1.281-1.118,1.759c-0.464,0.478-1.003,0.84-1.618,1.086s-1.256,0.369-1.921,0.369
		c-0.667,0-1.303-0.123-1.911-0.369s-1.147-0.608-1.618-1.086c-0.471-0.478-0.844-1.064-1.119-1.759
		C83.088,395.917,82.951,395.128,82.951,394.245z M85.513,394.245c0,1.071,0.221,1.93,0.663,2.573
		c0.441,0.645,1.053,0.967,1.835,0.967c0.782,0,1.396-0.322,1.846-0.967c0.448-0.644,0.673-1.502,0.673-2.573
		c0-1.086-0.225-1.95-0.673-2.595c-0.449-0.645-1.064-0.967-1.846-0.967c-0.782,0-1.394,0.322-1.835,0.967
		C85.734,392.295,85.513,393.159,85.513,394.245z"/>
	<path d="M95.568,388.903h2.062l0.174,1.434h0.087c0.478-0.464,0.995-0.861,1.553-1.194c0.557-0.333,1.205-0.5,1.943-0.5
		c1.144,0,1.976,0.366,2.498,1.097c0.521,0.731,0.782,1.777,0.782,3.138v6.688h-2.498v-6.362c0-0.883-0.13-1.506-0.391-1.868
		c-0.261-0.361-0.688-0.542-1.281-0.542c-0.463,0-0.873,0.112-1.227,0.336c-0.355,0.225-0.756,0.554-1.205,0.988v7.448h-2.497
		V388.903z"/>
	<path d="M107.272,396.699c0-1.144,0.499-2.026,1.498-2.649c0.999-0.622,2.591-1.057,4.777-1.303c0-0.275-0.036-0.539-0.108-0.793
		c-0.073-0.253-0.185-0.478-0.337-0.673c-0.152-0.195-0.347-0.348-0.586-0.456s-0.54-0.163-0.901-0.163
		c-0.536,0-1.053,0.102-1.553,0.304c-0.5,0.203-0.981,0.449-1.444,0.738l-0.912-1.672c0.593-0.376,1.256-0.702,1.987-0.977
		c0.731-0.275,1.523-0.413,2.378-0.413c1.346,0,2.345,0.395,2.997,1.184s0.978,1.93,0.978,3.42v6.319h-2.042l-0.195-1.173h-0.065
		c-0.478,0.405-0.988,0.746-1.531,1.021c-0.543,0.275-1.133,0.413-1.77,0.413c-0.941,0-1.705-0.286-2.291-0.857
		C107.565,398.396,107.272,397.64,107.272,396.699z M109.704,396.504c0,0.478,0.141,0.825,0.423,1.042s0.647,0.326,1.097,0.326
		c0.434,0,0.832-0.102,1.194-0.305c0.361-0.202,0.738-0.492,1.129-0.868v-2.389c-0.724,0.087-1.332,0.203-1.824,0.348
		s-0.887,0.308-1.183,0.488c-0.297,0.181-0.51,0.388-0.641,0.619S109.704,396.243,109.704,396.504z"/>
	<path d="M119.085,384.234h2.497v12.726c0,0.304,0.058,0.518,0.174,0.641c0.116,0.123,0.239,0.185,0.369,0.185
		c0.058,0,0.112,0,0.163,0s0.126-0.015,0.228-0.044l0.326,1.867c-0.333,0.145-0.774,0.218-1.325,0.218
		c-0.897,0-1.527-0.268-1.889-0.804c-0.362-0.535-0.542-1.267-0.542-2.193V384.234z"/>
	<path d="M136.239,395.721h-4.777l-1.107,3.844h-2.562l4.625-14.202h2.953l4.625,14.202h-2.649L136.239,395.721z M135.675,393.746
		l-0.5-1.737c-0.232-0.753-0.453-1.527-0.663-2.324c-0.21-0.796-0.416-1.585-0.619-2.366h-0.087
		c-0.203,0.796-0.405,1.589-0.608,2.378c-0.203,0.789-0.42,1.56-0.651,2.312l-0.5,1.737H135.675z"/>
	<path d="M141.538,384.234h2.497v12.726c0,0.304,0.058,0.518,0.174,0.641c0.116,0.123,0.239,0.185,0.369,0.185
		c0.058,0,0.112,0,0.163,0s0.126-0.015,0.228-0.044l0.326,1.867c-0.333,0.145-0.774,0.218-1.325,0.218
		c-0.897,0-1.527-0.268-1.889-0.804c-0.362-0.535-0.542-1.267-0.542-2.193V384.234z"/>
	<path d="M146.706,401.498c0-0.449,0.13-0.865,0.391-1.249c0.261-0.384,0.637-0.727,1.129-1.031v-0.087
		c-0.275-0.174-0.503-0.405-0.684-0.694c-0.181-0.29-0.271-0.651-0.271-1.086c0-0.42,0.12-0.8,0.358-1.141
		c0.239-0.34,0.51-0.618,0.814-0.836v-0.087c-0.362-0.274-0.684-0.654-0.966-1.14c-0.282-0.484-0.424-1.046-0.424-1.683
		c0-0.608,0.116-1.151,0.348-1.629c0.231-0.478,0.539-0.88,0.923-1.205c0.383-0.326,0.829-0.572,1.335-0.738s1.042-0.25,1.607-0.25
		c0.29,0,0.568,0.025,0.836,0.076s0.51,0.112,0.728,0.185h3.822v1.846h-1.954c0.174,0.203,0.318,0.46,0.434,0.771
		c0.116,0.312,0.174,0.655,0.174,1.032c0,0.594-0.105,1.114-0.315,1.563c-0.21,0.448-0.496,0.825-0.857,1.129
		c-0.362,0.304-0.79,0.536-1.281,0.695c-0.493,0.159-1.021,0.238-1.585,0.238c-0.231,0-0.471-0.021-0.716-0.065
		c-0.247-0.043-0.493-0.115-0.738-0.217c-0.16,0.145-0.286,0.29-0.38,0.435s-0.141,0.34-0.141,0.586c0,0.304,0.126,0.543,0.38,0.717
		s0.706,0.261,1.357,0.261h1.889c1.289,0,2.262,0.206,2.921,0.619c0.658,0.412,0.988,1.082,0.988,2.008
		c0,0.521-0.134,1.014-0.402,1.477c-0.268,0.464-0.648,0.861-1.14,1.194c-0.493,0.333-1.09,0.598-1.792,0.793
		c-0.703,0.195-1.488,0.293-2.356,0.293c-0.637,0-1.227-0.058-1.77-0.174c-0.543-0.115-1.01-0.289-1.401-0.521
		c-0.391-0.232-0.698-0.521-0.923-0.869S146.706,401.961,146.706,401.498z M148.791,401.129c0,0.478,0.242,0.851,0.728,1.118
		c0.485,0.268,1.154,0.402,2.009,0.402c0.869,0,1.567-0.171,2.095-0.511s0.793-0.742,0.793-1.205c0-0.42-0.163-0.702-0.489-0.847
		c-0.326-0.146-0.792-0.218-1.4-0.218h-1.455c-0.579,0-1.064-0.051-1.455-0.151C149.065,400.136,148.791,400.607,148.791,401.129z
		 M151.266,394.614c0.507,0,0.941-0.185,1.303-0.554c0.361-0.369,0.542-0.901,0.542-1.596c0-0.666-0.177-1.184-0.532-1.553
		c-0.355-0.369-0.792-0.554-1.314-0.554c-0.521,0-0.963,0.181-1.325,0.543c-0.362,0.361-0.542,0.883-0.542,1.563
		c0,0.694,0.181,1.227,0.542,1.596S150.745,394.614,151.266,394.614z"/>
	<path d="M157.672,394.245c0-0.883,0.138-1.672,0.413-2.367c0.275-0.694,0.648-1.281,1.119-1.759c0.47-0.478,1.01-0.843,1.618-1.097
		c0.608-0.253,1.245-0.38,1.911-0.38c0.666,0,1.306,0.127,1.921,0.38c0.615,0.254,1.154,0.619,1.618,1.097
		c0.463,0.478,0.836,1.064,1.118,1.759c0.282,0.695,0.423,1.484,0.423,2.367s-0.141,1.672-0.423,2.367
		c-0.282,0.694-0.655,1.281-1.118,1.759c-0.464,0.478-1.003,0.84-1.618,1.086s-1.256,0.369-1.921,0.369
		c-0.667,0-1.303-0.123-1.911-0.369s-1.147-0.608-1.618-1.086c-0.471-0.478-0.844-1.064-1.119-1.759
		C157.81,395.917,157.672,395.128,157.672,394.245z M160.234,394.245c0,1.071,0.221,1.93,0.663,2.573
		c0.441,0.645,1.053,0.967,1.835,0.967c0.782,0,1.396-0.322,1.846-0.967c0.448-0.644,0.673-1.502,0.673-2.573
		c0-1.086-0.225-1.95-0.673-2.595c-0.449-0.645-1.064-0.967-1.846-0.967c-0.782,0-1.394,0.322-1.835,0.967
		C160.455,392.295,160.234,393.159,160.234,394.245z"/>
	<path d="M170.289,388.903h2.062l0.174,1.89h0.087c0.376-0.695,0.833-1.228,1.368-1.597c0.535-0.369,1.085-0.554,1.65-0.554
		c0.506,0,0.912,0.072,1.216,0.217l-0.434,2.172c-0.188-0.058-0.362-0.101-0.521-0.13s-0.354-0.044-0.586-0.044
		c-0.42,0-0.862,0.163-1.325,0.489c-0.463,0.325-0.861,0.894-1.194,1.704v6.515h-2.497V388.903z"/>
	<path d="M179.647,387.036c-0.449,0-0.818-0.131-1.107-0.392c-0.29-0.26-0.435-0.601-0.435-1.021s0.145-0.763,0.435-1.031
		c0.29-0.268,0.659-0.401,1.107-0.401s0.818,0.134,1.107,0.401c0.29,0.269,0.434,0.611,0.434,1.031s-0.145,0.761-0.434,1.021
		C180.465,386.905,180.096,387.036,179.647,387.036z M178.388,388.903h2.497v10.662h-2.497V388.903z"/>
	<path d="M184.447,390.879h-1.521v-1.867l1.65-0.108l0.304-2.91h2.084v2.91h2.714v1.976h-2.714v5.082c0,1.245,0.5,1.867,1.499,1.867
		c0.188,0,0.38-0.021,0.576-0.065c0.195-0.043,0.373-0.101,0.532-0.174l0.435,1.847c-0.29,0.101-0.619,0.191-0.988,0.271
		c-0.369,0.079-0.764,0.119-1.184,0.119c-0.623,0-1.147-0.095-1.574-0.282c-0.427-0.188-0.774-0.452-1.042-0.793
		c-0.268-0.34-0.463-0.745-0.586-1.216c-0.124-0.471-0.185-0.995-0.185-1.574V390.879z"/>
	<path d="M191.917,384.234h2.497v3.952l-0.087,2.063c0.449-0.42,0.945-0.793,1.487-1.119c0.543-0.325,1.184-0.488,1.922-0.488
		c1.144,0,1.976,0.366,2.498,1.097c0.521,0.731,0.782,1.777,0.782,3.138v6.688h-2.498v-6.362c0-0.883-0.13-1.506-0.391-1.868
		c-0.261-0.361-0.688-0.542-1.281-0.542c-0.463,0-0.873,0.112-1.227,0.336c-0.355,0.225-0.756,0.554-1.205,0.988v7.448h-2.497
		V384.234z"/>
	<path d="M204.034,388.903h2.062l0.174,1.455h0.087c0.449-0.478,0.937-0.883,1.466-1.216c0.528-0.333,1.125-0.5,1.792-0.5
		c0.782,0,1.408,0.167,1.878,0.5c0.47,0.333,0.829,0.803,1.075,1.411c0.507-0.55,1.035-1.006,1.585-1.368
		c0.55-0.361,1.165-0.543,1.846-0.543c1.129,0,1.961,0.366,2.497,1.097c0.536,0.731,0.804,1.777,0.804,3.138v6.688h-2.519v-6.362
		c0-0.883-0.134-1.506-0.402-1.868c-0.268-0.361-0.677-0.542-1.227-0.542c-0.667,0-1.412,0.441-2.237,1.324v7.448h-2.498v-6.362
		c0-0.883-0.134-1.506-0.401-1.868c-0.268-0.361-0.684-0.542-1.249-0.542c-0.667,0-1.412,0.441-2.237,1.324v7.448h-2.497V388.903z"
		/>
	<path d="M222.448,396.742c0.478,0.377,0.952,0.67,1.422,0.88c0.47,0.21,0.98,0.314,1.531,0.314c0.579,0,1.006-0.119,1.281-0.358
		c0.275-0.238,0.413-0.546,0.413-0.923c0-0.217-0.065-0.408-0.195-0.575c-0.13-0.166-0.304-0.314-0.521-0.445
		c-0.217-0.13-0.463-0.249-0.738-0.358c-0.275-0.108-0.55-0.221-0.825-0.336c-0.347-0.131-0.702-0.282-1.064-0.456
		s-0.684-0.384-0.966-0.63s-0.514-0.532-0.695-0.857c-0.181-0.326-0.271-0.713-0.271-1.162c0-0.941,0.348-1.708,1.042-2.302
		s1.643-0.891,2.845-0.891c0.738,0,1.404,0.131,1.998,0.391c0.594,0.261,1.107,0.558,1.542,0.891l-1.151,1.521
		c-0.377-0.275-0.757-0.496-1.14-0.663c-0.384-0.166-0.786-0.249-1.205-0.249c-0.536,0-0.931,0.112-1.184,0.336
		c-0.253,0.225-0.38,0.504-0.38,0.836c0,0.218,0.061,0.402,0.185,0.554c0.123,0.152,0.286,0.286,0.488,0.402
		s0.438,0.225,0.706,0.325c0.268,0.102,0.546,0.203,0.836,0.305c0.362,0.13,0.724,0.278,1.086,0.445
		c0.361,0.166,0.691,0.372,0.988,0.618c0.296,0.247,0.536,0.547,0.717,0.901c0.181,0.355,0.271,0.778,0.271,1.271
		c0,0.464-0.091,0.894-0.271,1.292c-0.181,0.398-0.445,0.746-0.793,1.042c-0.347,0.297-0.782,0.532-1.303,0.706
		s-1.115,0.261-1.781,0.261c-0.738,0-1.466-0.142-2.182-0.424c-0.717-0.282-1.335-0.633-1.857-1.053L222.448,396.742z"/>
	<path d="M241.6,386.211c-0.391-0.174-0.782-0.261-1.172-0.261c-0.898,0-1.347,0.601-1.347,1.802v1.151h2.085v1.976h-2.085v8.687
		h-2.497v-8.687h-1.433v-1.867l1.433-0.108v-1.107c0-0.55,0.065-1.061,0.195-1.531c0.13-0.47,0.34-0.876,0.63-1.216
		c0.29-0.34,0.655-0.604,1.097-0.793c0.441-0.188,0.98-0.282,1.618-0.282c0.376,0,0.734,0.036,1.075,0.108
		c0.34,0.073,0.633,0.16,0.88,0.261L241.6,386.211z"/>
	<path d="M242.121,394.245c0-0.883,0.138-1.672,0.413-2.367c0.275-0.694,0.648-1.281,1.119-1.759c0.47-0.478,1.01-0.843,1.618-1.097
		c0.608-0.253,1.245-0.38,1.911-0.38c0.666,0,1.306,0.127,1.921,0.38c0.615,0.254,1.154,0.619,1.618,1.097
		c0.463,0.478,0.836,1.064,1.118,1.759c0.282,0.695,0.423,1.484,0.423,2.367s-0.141,1.672-0.423,2.367
		c-0.282,0.694-0.655,1.281-1.118,1.759c-0.464,0.478-1.003,0.84-1.618,1.086s-1.256,0.369-1.921,0.369
		c-0.667,0-1.303-0.123-1.911-0.369s-1.147-0.608-1.618-1.086c-0.471-0.478-0.844-1.064-1.119-1.759
		C242.258,395.917,242.121,395.128,242.121,394.245z M244.683,394.245c0,1.071,0.221,1.93,0.663,2.573
		c0.441,0.645,1.053,0.967,1.835,0.967c0.782,0,1.396-0.322,1.846-0.967c0.448-0.644,0.673-1.502,0.673-2.573
		c0-1.086-0.225-1.95-0.673-2.595c-0.449-0.645-1.064-0.967-1.846-0.967c-0.782,0-1.394,0.322-1.835,0.967
		C244.904,392.295,244.683,393.159,244.683,394.245z"/>
	<path d="M254.738,388.903h2.062l0.174,1.89h0.087c0.376-0.695,0.833-1.228,1.368-1.597c0.535-0.369,1.085-0.554,1.65-0.554
		c0.506,0,0.912,0.072,1.216,0.217l-0.434,2.172c-0.188-0.058-0.362-0.101-0.521-0.13s-0.354-0.044-0.586-0.044
		c-0.42,0-0.862,0.163-1.325,0.489c-0.463,0.325-0.861,0.894-1.194,1.704v6.515h-2.497V388.903z"/>
	<path d="M267.505,385.363h4.777c0.782,0,1.502,0.073,2.161,0.218c0.658,0.145,1.227,0.391,1.704,0.738
		c0.479,0.348,0.854,0.8,1.13,1.357c0.274,0.557,0.412,1.248,0.412,2.073c0,0.782-0.138,1.463-0.412,2.041
		c-0.275,0.579-0.655,1.061-1.141,1.444s-1.057,0.666-1.715,0.847c-0.659,0.182-1.372,0.271-2.14,0.271h-2.258v5.212h-2.52V385.363z
		 M272.087,392.334c2.085,0,3.127-0.861,3.127-2.584c0-0.897-0.261-1.517-0.781-1.856c-0.521-0.34-1.303-0.511-2.346-0.511h-2.062
		v4.951H272.087z"/>
	<path d="M280.035,396.742c0.478,0.377,0.952,0.67,1.423,0.88c0.47,0.21,0.98,0.314,1.53,0.314c0.579,0,1.006-0.119,1.281-0.358
		c0.275-0.238,0.413-0.546,0.413-0.923c0-0.217-0.065-0.408-0.195-0.575c-0.131-0.166-0.305-0.314-0.521-0.445
		c-0.217-0.13-0.464-0.249-0.738-0.358c-0.275-0.108-0.551-0.221-0.825-0.336c-0.348-0.131-0.702-0.282-1.064-0.456
		c-0.361-0.174-0.684-0.384-0.966-0.63s-0.515-0.532-0.695-0.857c-0.181-0.326-0.271-0.713-0.271-1.162
		c0-0.941,0.348-1.708,1.043-2.302c0.694-0.594,1.643-0.891,2.845-0.891c0.738,0,1.403,0.131,1.997,0.391
		c0.594,0.261,1.107,0.558,1.542,0.891l-1.15,1.521c-0.377-0.275-0.757-0.496-1.141-0.663c-0.384-0.166-0.785-0.249-1.205-0.249
		c-0.536,0-0.931,0.112-1.184,0.336c-0.253,0.225-0.38,0.504-0.38,0.836c0,0.218,0.062,0.402,0.185,0.554
		c0.123,0.152,0.286,0.286,0.488,0.402c0.203,0.116,0.438,0.225,0.706,0.325c0.268,0.102,0.546,0.203,0.836,0.305
		c0.362,0.13,0.724,0.278,1.086,0.445c0.361,0.166,0.691,0.372,0.988,0.618c0.296,0.247,0.535,0.547,0.717,0.901
		c0.181,0.355,0.271,0.778,0.271,1.271c0,0.464-0.091,0.894-0.271,1.292c-0.182,0.398-0.445,0.746-0.793,1.042
		c-0.348,0.297-0.782,0.532-1.303,0.706c-0.521,0.174-1.115,0.261-1.781,0.261c-0.738,0-1.466-0.142-2.182-0.424
		c-0.717-0.282-1.336-0.633-1.857-1.053L280.035,396.742z"/>
	<path d="M289.427,401.878c0.138,0.036,0.271,0.055,0.401,0.055c0.565,0,1.018-0.171,1.357-0.511s0.598-0.778,0.771-1.313
		l0.195-0.673l-4.191-10.532h2.541l1.846,5.233c0.159,0.464,0.314,0.952,0.467,1.466s0.308,1.024,0.467,1.531h0.087
		c0.13-0.492,0.264-0.996,0.401-1.51s0.271-1.01,0.402-1.487l1.606-5.233h2.41l-3.865,11.14c-0.217,0.608-0.456,1.151-0.716,1.629
		c-0.261,0.478-0.562,0.887-0.901,1.227c-0.341,0.34-0.731,0.601-1.173,0.782c-0.441,0.181-0.952,0.271-1.531,0.271
		c-0.289,0-0.543-0.019-0.76-0.055s-0.427-0.091-0.63-0.163l0.456-1.954C289.17,401.809,289.289,401.841,289.427,401.878z"/>
	<path d="M299.209,394.245c0-0.883,0.145-1.672,0.435-2.367c0.29-0.694,0.681-1.281,1.173-1.759s1.061-0.843,1.704-1.097
		c0.645-0.253,1.321-0.38,2.031-0.38c0.694,0,1.299,0.119,1.812,0.358s0.952,0.532,1.314,0.88l-1.194,1.585
		c-0.29-0.246-0.579-0.438-0.869-0.575s-0.601-0.207-0.934-0.207c-0.868,0-1.571,0.322-2.106,0.967
		c-0.536,0.645-0.804,1.509-0.804,2.595c0,1.071,0.265,1.93,0.793,2.573c0.528,0.645,1.212,0.967,2.052,0.967
		c0.435,0,0.836-0.091,1.205-0.271c0.369-0.182,0.698-0.395,0.988-0.641l1.043,1.585c-0.508,0.449-1.064,0.789-1.673,1.021
		c-0.607,0.231-1.216,0.348-1.824,0.348c-0.724,0-1.4-0.123-2.03-0.369c-0.629-0.246-1.176-0.608-1.639-1.086
		c-0.464-0.478-0.825-1.064-1.086-1.759C299.34,395.917,299.209,395.128,299.209,394.245z"/>
	<path d="M309.937,384.234h2.497v3.952l-0.087,2.063c0.449-0.42,0.945-0.793,1.487-1.119c0.543-0.325,1.184-0.488,1.922-0.488
		c1.144,0,1.977,0.366,2.498,1.097c0.521,0.731,0.781,1.777,0.781,3.138v6.688h-2.497v-6.362c0-0.883-0.131-1.506-0.391-1.868
		c-0.261-0.361-0.688-0.542-1.281-0.542c-0.464,0-0.873,0.112-1.228,0.336c-0.354,0.225-0.756,0.554-1.205,0.988v7.448h-2.497
		V384.234z"/>
	<path d="M323.313,387.036c-0.449,0-0.818-0.131-1.107-0.392c-0.29-0.26-0.435-0.601-0.435-1.021s0.145-0.763,0.435-1.031
		c0.289-0.268,0.658-0.401,1.107-0.401c0.448,0,0.817,0.134,1.107,0.401c0.289,0.269,0.434,0.611,0.434,1.031
		s-0.145,0.761-0.434,1.021C324.131,386.905,323.762,387.036,323.313,387.036z M322.054,388.903h2.497v10.662h-2.497V388.903z"/>
	<path d="M327.287,396.699c0-1.144,0.499-2.026,1.498-2.649c0.999-0.622,2.591-1.057,4.777-1.303c0-0.275-0.036-0.539-0.108-0.793
		c-0.073-0.253-0.185-0.478-0.337-0.673s-0.348-0.348-0.586-0.456c-0.239-0.108-0.54-0.163-0.901-0.163
		c-0.536,0-1.054,0.102-1.553,0.304c-0.5,0.203-0.981,0.449-1.444,0.738l-0.912-1.672c0.594-0.376,1.256-0.702,1.987-0.977
		c0.73-0.275,1.523-0.413,2.378-0.413c1.346,0,2.345,0.395,2.996,1.184s0.978,1.93,0.978,3.42v6.319h-2.041l-0.195-1.173h-0.065
		c-0.478,0.405-0.988,0.746-1.531,1.021c-0.543,0.275-1.133,0.413-1.77,0.413c-0.941,0-1.705-0.286-2.291-0.857
		C327.58,398.396,327.287,397.64,327.287,396.699z M329.719,396.504c0,0.478,0.142,0.825,0.424,1.042s0.647,0.326,1.097,0.326
		c0.434,0,0.832-0.102,1.194-0.305c0.361-0.202,0.738-0.492,1.129-0.868v-2.389c-0.725,0.087-1.332,0.203-1.824,0.348
		s-0.887,0.308-1.184,0.488s-0.51,0.388-0.641,0.619C329.784,395.997,329.719,396.243,329.719,396.504z"/>
	<path d="M339.47,390.879h-1.521v-1.867l1.65-0.108l0.304-2.91h2.085v2.91h2.714v1.976h-2.714v5.082
		c0,1.245,0.499,1.867,1.498,1.867c0.188,0,0.38-0.021,0.576-0.065c0.195-0.043,0.372-0.101,0.531-0.174l0.435,1.847
		c-0.29,0.101-0.619,0.191-0.988,0.271c-0.369,0.079-0.764,0.119-1.184,0.119c-0.622,0-1.147-0.095-1.574-0.282
		c-0.427-0.188-0.774-0.452-1.042-0.793c-0.269-0.34-0.464-0.745-0.586-1.216c-0.124-0.471-0.185-0.995-0.185-1.574V390.879z"/>
	<path d="M346.939,388.903h2.062l0.174,1.89h0.087c0.376-0.695,0.832-1.228,1.368-1.597c0.535-0.369,1.085-0.554,1.65-0.554
		c0.506,0,0.912,0.072,1.216,0.217l-0.435,2.172c-0.188-0.058-0.362-0.101-0.521-0.13s-0.354-0.044-0.586-0.044
		c-0.42,0-0.861,0.163-1.324,0.489c-0.464,0.325-0.861,0.894-1.194,1.704v6.515h-2.497V388.903z"/>
	<path d="M355.44,401.878c0.137,0.036,0.271,0.055,0.401,0.055c0.564,0,1.017-0.171,1.357-0.511c0.34-0.34,0.597-0.778,0.771-1.313
		l0.195-0.673l-4.19-10.532h2.54l1.846,5.233c0.159,0.464,0.315,0.952,0.467,1.466c0.152,0.514,0.308,1.024,0.467,1.531h0.087
		c0.131-0.492,0.265-0.996,0.402-1.51s0.271-1.01,0.401-1.487l1.607-5.233h2.41l-3.865,11.14c-0.218,0.608-0.456,1.151-0.717,1.629
		s-0.562,0.887-0.901,1.227s-0.731,0.601-1.173,0.782c-0.441,0.181-0.951,0.271-1.53,0.271c-0.29,0-0.543-0.019-0.76-0.055
		c-0.218-0.036-0.428-0.091-0.63-0.163l0.456-1.954C355.183,401.809,355.302,401.841,355.44,401.878z"/>
	<path d="M377.317,395.721h-4.777l-1.107,3.844h-2.562l4.626-14.202h2.953l4.625,14.202h-2.649L377.317,395.721z M376.753,393.746
		l-0.499-1.737c-0.232-0.753-0.453-1.527-0.663-2.324c-0.21-0.796-0.416-1.585-0.618-2.366h-0.087
		c-0.203,0.796-0.405,1.589-0.608,2.378s-0.42,1.56-0.651,2.312l-0.499,1.737H376.753z"/>
	<path d="M381.964,394.245c0-0.868,0.127-1.65,0.38-2.345c0.253-0.695,0.59-1.281,1.01-1.76c0.42-0.478,0.901-0.847,1.444-1.107
		c0.543-0.26,1.104-0.391,1.683-0.391c0.608,0,1.122,0.105,1.542,0.315s0.84,0.496,1.26,0.857l-0.087-1.716v-3.865h2.497v15.331
		h-2.062l-0.174-1.151h-0.087c-0.391,0.392-0.847,0.725-1.368,0.999c-0.521,0.275-1.071,0.413-1.65,0.413
		c-1.347,0-2.414-0.488-3.203-1.466S381.964,396.011,381.964,394.245z M384.548,394.223c0,1.158,0.207,2.038,0.619,2.639
		c0.413,0.601,1.01,0.9,1.792,0.9c0.796,0,1.541-0.397,2.236-1.194v-4.973c-0.377-0.333-0.742-0.564-1.097-0.694
		c-0.354-0.131-0.713-0.195-1.075-0.195c-0.694,0-1.281,0.304-1.759,0.911C384.787,392.225,384.548,393.094,384.548,394.223z"/>
	<path d="M393.538,388.903h2.54l1.694,5.537c0.145,0.521,0.293,1.05,0.445,1.585c0.151,0.536,0.3,1.079,0.445,1.629h0.087
		c0.159-0.55,0.311-1.093,0.456-1.629c0.145-0.535,0.296-1.063,0.455-1.585l1.694-5.537h2.41l-3.626,10.662h-2.889L393.538,388.903z
		"/>
	<path d="M404.722,396.699c0-1.144,0.5-2.026,1.499-2.649c0.998-0.622,2.591-1.057,4.777-1.303c0-0.275-0.037-0.539-0.109-0.793
		c-0.072-0.253-0.185-0.478-0.336-0.673c-0.152-0.195-0.348-0.348-0.587-0.456c-0.238-0.108-0.539-0.163-0.9-0.163
		c-0.536,0-1.054,0.102-1.553,0.304c-0.5,0.203-0.981,0.449-1.444,0.738l-0.912-1.672c0.594-0.376,1.256-0.702,1.987-0.977
		c0.73-0.275,1.523-0.413,2.378-0.413c1.346,0,2.345,0.395,2.996,1.184s0.978,1.93,0.978,3.42v6.319h-2.041l-0.196-1.173h-0.064
		c-0.478,0.405-0.988,0.746-1.531,1.021c-0.543,0.275-1.133,0.413-1.77,0.413c-0.941,0-1.705-0.286-2.291-0.857
		C405.015,398.396,404.722,397.64,404.722,396.699z M407.154,396.504c0,0.478,0.141,0.825,0.423,1.042s0.648,0.326,1.097,0.326
		c0.435,0,0.833-0.102,1.194-0.305c0.362-0.202,0.738-0.492,1.13-0.868v-2.389c-0.725,0.087-1.332,0.203-1.824,0.348
		s-0.887,0.308-1.184,0.488s-0.511,0.388-0.641,0.619C407.219,395.997,407.154,396.243,407.154,396.504z"/>
	<path d="M416.534,388.903h2.063l0.174,1.434h0.087c0.478-0.464,0.995-0.861,1.552-1.194c0.558-0.333,1.206-0.5,1.944-0.5
		c1.143,0,1.976,0.366,2.497,1.097c0.521,0.731,0.781,1.777,0.781,3.138v6.688h-2.497v-6.362c0-0.883-0.13-1.506-0.391-1.868
		c-0.261-0.361-0.688-0.542-1.281-0.542c-0.464,0-0.872,0.112-1.227,0.336c-0.355,0.225-0.757,0.554-1.206,0.988v7.448h-2.497
		V388.903z"/>
	<path d="M428.001,394.245c0-0.883,0.145-1.672,0.434-2.367c0.29-0.694,0.681-1.281,1.173-1.759s1.061-0.843,1.705-1.097
		c0.644-0.253,1.32-0.38,2.03-0.38c0.694,0,1.299,0.119,1.813,0.358c0.514,0.239,0.951,0.532,1.313,0.88l-1.194,1.585
		c-0.29-0.246-0.579-0.438-0.869-0.575c-0.289-0.138-0.601-0.207-0.934-0.207c-0.868,0-1.57,0.322-2.106,0.967
		c-0.535,0.645-0.803,1.509-0.803,2.595c0,1.071,0.264,1.93,0.792,2.573c0.528,0.645,1.213,0.967,2.053,0.967
		c0.434,0,0.836-0.091,1.205-0.271c0.369-0.182,0.698-0.395,0.987-0.641l1.043,1.585c-0.507,0.449-1.064,0.789-1.672,1.021
		c-0.608,0.231-1.217,0.348-1.824,0.348c-0.725,0-1.401-0.123-2.03-0.369c-0.63-0.246-1.177-0.608-1.64-1.086
		c-0.464-0.478-0.825-1.064-1.086-1.759C428.131,395.917,428.001,395.128,428.001,394.245z"/>
	<path d="M439.987,387.036c-0.449,0-0.818-0.131-1.107-0.392c-0.29-0.26-0.435-0.601-0.435-1.021s0.145-0.763,0.435-1.031
		c0.289-0.268,0.658-0.401,1.107-0.401c0.448,0,0.817,0.134,1.107,0.401c0.289,0.269,0.435,0.611,0.435,1.031
		s-0.146,0.761-0.435,1.021C440.805,386.905,440.436,387.036,439.987,387.036z M438.728,388.903h2.497v10.662h-2.497V388.903z"/>
	<path d="M444.416,388.903h2.063l0.174,1.434h0.087c0.478-0.464,0.995-0.861,1.552-1.194c0.558-0.333,1.206-0.5,1.944-0.5
		c1.143,0,1.976,0.366,2.497,1.097c0.521,0.731,0.781,1.777,0.781,3.138v6.688h-2.497v-6.362c0-0.883-0.13-1.506-0.391-1.868
		c-0.261-0.361-0.688-0.542-1.281-0.542c-0.464,0-0.872,0.112-1.227,0.336c-0.355,0.225-0.757,0.554-1.206,0.988v7.448h-2.497
		V388.903z"/>
	<path d="M455.86,401.498c0-0.449,0.131-0.865,0.392-1.249s0.637-0.727,1.129-1.031v-0.087c-0.275-0.174-0.503-0.405-0.684-0.694
		c-0.182-0.29-0.271-0.651-0.271-1.086c0-0.42,0.119-0.8,0.357-1.141c0.239-0.34,0.511-0.618,0.814-0.836v-0.087
		c-0.361-0.274-0.684-0.654-0.966-1.14c-0.282-0.484-0.424-1.046-0.424-1.683c0-0.608,0.116-1.151,0.348-1.629
		s0.539-0.88,0.923-1.205c0.384-0.326,0.829-0.572,1.336-0.738c0.506-0.166,1.042-0.25,1.606-0.25c0.289,0,0.568,0.025,0.836,0.076
		s0.511,0.112,0.728,0.185h3.822v1.846h-1.955c0.174,0.203,0.318,0.46,0.435,0.771c0.116,0.312,0.174,0.655,0.174,1.032
		c0,0.594-0.105,1.114-0.314,1.563c-0.21,0.448-0.496,0.825-0.858,1.129c-0.361,0.304-0.789,0.536-1.281,0.695
		s-1.021,0.238-1.585,0.238c-0.231,0-0.471-0.021-0.717-0.065c-0.246-0.043-0.492-0.115-0.738-0.217
		c-0.159,0.145-0.286,0.29-0.38,0.435s-0.141,0.34-0.141,0.586c0,0.304,0.126,0.543,0.38,0.717c0.253,0.174,0.705,0.261,1.356,0.261
		h1.89c1.288,0,2.262,0.206,2.921,0.619c0.658,0.412,0.988,1.082,0.988,2.008c0,0.521-0.135,1.014-0.402,1.477
		c-0.268,0.464-0.647,0.861-1.14,1.194s-1.09,0.598-1.792,0.793s-1.487,0.293-2.355,0.293c-0.638,0-1.228-0.058-1.771-0.174
		c-0.543-0.115-1.01-0.289-1.4-0.521c-0.391-0.232-0.698-0.521-0.923-0.869S455.86,401.961,455.86,401.498z M457.945,401.129
		c0,0.478,0.242,0.851,0.728,1.118s1.154,0.402,2.009,0.402c0.868,0,1.566-0.171,2.096-0.511c0.528-0.34,0.792-0.742,0.792-1.205
		c0-0.42-0.162-0.702-0.488-0.847c-0.326-0.146-0.793-0.218-1.4-0.218h-1.455c-0.579,0-1.064-0.051-1.455-0.151
		C458.221,400.136,457.945,400.607,457.945,401.129z M460.421,394.614c0.507,0,0.941-0.185,1.303-0.554
		c0.362-0.369,0.543-0.901,0.543-1.596c0-0.666-0.178-1.184-0.532-1.553s-0.792-0.554-1.313-0.554s-0.963,0.181-1.324,0.543
		c-0.362,0.361-0.543,0.883-0.543,1.563c0,0.694,0.181,1.227,0.543,1.596C459.458,394.429,459.899,394.614,460.421,394.614z"/>
	<path d="M473.036,396.025c0.507,0.479,1.086,0.865,1.737,1.162s1.303,0.445,1.954,0.445c0.811,0,1.426-0.166,1.846-0.499
		s0.63-0.774,0.63-1.325c0-0.289-0.054-0.535-0.163-0.738c-0.108-0.202-0.26-0.38-0.456-0.532c-0.195-0.151-0.427-0.293-0.694-0.423
		c-0.269-0.131-0.562-0.261-0.88-0.392l-1.954-0.847c-0.348-0.145-0.691-0.325-1.031-0.543c-0.341-0.217-0.648-0.478-0.923-0.781
		c-0.275-0.305-0.496-0.659-0.662-1.064c-0.167-0.405-0.25-0.868-0.25-1.39c0-0.564,0.119-1.089,0.358-1.574
		c0.238-0.485,0.567-0.908,0.987-1.271c0.42-0.361,0.924-0.644,1.51-0.847s1.227-0.304,1.922-0.304c0.825,0,1.621,0.162,2.389,0.488
		c0.767,0.325,1.426,0.764,1.976,1.313l-1.281,1.607c-0.463-0.377-0.94-0.674-1.433-0.891s-1.043-0.326-1.65-0.326
		c-0.681,0-1.224,0.149-1.629,0.445c-0.405,0.297-0.608,0.706-0.608,1.228c0,0.274,0.062,0.51,0.185,0.705s0.29,0.369,0.5,0.521
		s0.452,0.29,0.728,0.413c0.274,0.123,0.557,0.242,0.847,0.357l1.933,0.804c0.42,0.174,0.804,0.377,1.151,0.608
		c0.347,0.231,0.647,0.499,0.9,0.804c0.254,0.304,0.453,0.654,0.598,1.053s0.217,0.857,0.217,1.379c0,0.579-0.116,1.122-0.347,1.629
		c-0.232,0.507-0.568,0.952-1.01,1.335c-0.442,0.384-0.978,0.688-1.607,0.912c-0.63,0.225-1.343,0.337-2.139,0.337
		c-0.956,0-1.879-0.182-2.769-0.543c-0.891-0.361-1.676-0.876-2.356-1.542L473.036,396.025z"/>
	<path d="M483.46,394.245c0-0.883,0.145-1.672,0.434-2.367c0.29-0.694,0.681-1.281,1.173-1.759s1.061-0.843,1.705-1.097
		c0.644-0.253,1.32-0.38,2.03-0.38c0.694,0,1.299,0.119,1.813,0.358c0.514,0.239,0.951,0.532,1.313,0.88l-1.194,1.585
		c-0.29-0.246-0.579-0.438-0.869-0.575c-0.289-0.138-0.601-0.207-0.934-0.207c-0.868,0-1.57,0.322-2.106,0.967
		c-0.535,0.645-0.803,1.509-0.803,2.595c0,1.071,0.264,1.93,0.792,2.573c0.528,0.645,1.213,0.967,2.053,0.967
		c0.434,0,0.836-0.091,1.205-0.271c0.369-0.182,0.698-0.395,0.987-0.641l1.043,1.585c-0.507,0.449-1.064,0.789-1.672,1.021
		c-0.608,0.231-1.217,0.348-1.824,0.348c-0.725,0-1.401-0.123-2.03-0.369c-0.63-0.246-1.177-0.608-1.64-1.086
		c-0.464-0.478-0.825-1.064-1.086-1.759C483.59,395.917,483.46,395.128,483.46,394.245z"/>
	<path d="M495.446,387.036c-0.449,0-0.818-0.131-1.107-0.392c-0.29-0.26-0.435-0.601-0.435-1.021s0.145-0.763,0.435-1.031
		c0.289-0.268,0.658-0.401,1.107-0.401c0.448,0,0.817,0.134,1.107,0.401c0.289,0.269,0.435,0.611,0.435,1.031
		s-0.146,0.761-0.435,1.021C496.264,386.905,495.895,387.036,495.446,387.036z M494.187,388.903h2.497v10.662h-2.497V388.903z"/>
	<path d="M499.182,394.245c0-0.868,0.137-1.65,0.412-2.345c0.275-0.695,0.641-1.281,1.097-1.76c0.456-0.478,0.98-0.847,1.574-1.107
		c0.594-0.26,1.202-0.391,1.824-0.391c0.724,0,1.36,0.123,1.911,0.369c0.55,0.246,1.01,0.594,1.379,1.042
		c0.369,0.449,0.647,0.985,0.836,1.607c0.188,0.623,0.282,1.303,0.282,2.041c0,0.492-0.036,0.884-0.108,1.173h-6.775
		c0.116,0.97,0.452,1.716,1.01,2.236c0.558,0.521,1.271,0.782,2.139,0.782c0.464,0,0.895-0.068,1.292-0.206
		c0.398-0.138,0.793-0.329,1.184-0.576l0.848,1.563c-0.507,0.333-1.072,0.608-1.694,0.825c-0.622,0.218-1.273,0.326-1.954,0.326
		c-0.738,0-1.426-0.127-2.063-0.38c-0.637-0.253-1.194-0.619-1.672-1.097s-0.851-1.061-1.118-1.748S499.182,395.128,499.182,394.245
		z M506.325,393.29c0-0.854-0.177-1.521-0.531-1.998c-0.355-0.478-0.901-0.717-1.64-0.717c-0.638,0-1.194,0.229-1.672,0.685
		c-0.479,0.456-0.775,1.133-0.891,2.03H506.325z"/>
	<path d="M510.886,388.903h2.063l0.174,1.434h0.087c0.478-0.464,0.995-0.861,1.552-1.194c0.558-0.333,1.206-0.5,1.944-0.5
		c1.143,0,1.976,0.366,2.497,1.097c0.521,0.731,0.781,1.777,0.781,3.138v6.688h-2.497v-6.362c0-0.883-0.13-1.506-0.391-1.868
		c-0.261-0.361-0.688-0.542-1.281-0.542c-0.464,0-0.872,0.112-1.227,0.336c-0.355,0.225-0.757,0.554-1.206,0.988v7.448h-2.497
		V388.903z"/>
	<path d="M522.352,394.245c0-0.883,0.145-1.672,0.434-2.367c0.29-0.694,0.681-1.281,1.173-1.759s1.061-0.843,1.705-1.097
		c0.644-0.253,1.32-0.38,2.03-0.38c0.694,0,1.299,0.119,1.813,0.358c0.514,0.239,0.951,0.532,1.313,0.88l-1.194,1.585
		c-0.29-0.246-0.579-0.438-0.869-0.575c-0.289-0.138-0.601-0.207-0.934-0.207c-0.868,0-1.57,0.322-2.106,0.967
		c-0.535,0.645-0.803,1.509-0.803,2.595c0,1.071,0.264,1.93,0.792,2.573c0.528,0.645,1.213,0.967,2.053,0.967
		c0.434,0,0.836-0.091,1.205-0.271c0.369-0.182,0.698-0.395,0.987-0.641l1.043,1.585c-0.507,0.449-1.064,0.789-1.672,1.021
		c-0.608,0.231-1.217,0.348-1.824,0.348c-0.725,0-1.401-0.123-2.03-0.369c-0.63-0.246-1.177-0.608-1.64-1.086
		c-0.464-0.478-0.825-1.064-1.086-1.759C522.481,395.917,522.352,395.128,522.352,394.245z"/>
	<path d="M531.862,394.245c0-0.868,0.137-1.65,0.412-2.345c0.275-0.695,0.641-1.281,1.097-1.76c0.456-0.478,0.98-0.847,1.574-1.107
		c0.594-0.26,1.202-0.391,1.824-0.391c0.724,0,1.36,0.123,1.911,0.369c0.55,0.246,1.01,0.594,1.379,1.042
		c0.369,0.449,0.647,0.985,0.836,1.607c0.188,0.623,0.282,1.303,0.282,2.041c0,0.492-0.036,0.884-0.108,1.173h-6.775
		c0.116,0.97,0.452,1.716,1.01,2.236c0.558,0.521,1.271,0.782,2.139,0.782c0.464,0,0.895-0.068,1.292-0.206
		c0.398-0.138,0.793-0.329,1.184-0.576l0.848,1.563c-0.507,0.333-1.072,0.608-1.694,0.825c-0.622,0.218-1.273,0.326-1.954,0.326
		c-0.738,0-1.426-0.127-2.063-0.38c-0.637-0.253-1.194-0.619-1.672-1.097s-0.851-1.061-1.118-1.748S531.862,395.128,531.862,394.245
		z M539.006,393.29c0-0.854-0.177-1.521-0.531-1.998c-0.355-0.478-0.901-0.717-1.64-0.717c-0.638,0-1.194,0.229-1.672,0.685
		c-0.479,0.456-0.775,1.133-0.891,2.03H539.006z"/>
</g>
</svg>
