<?xml version="1.0" encoding="utf-8"?>
<!-- Generator: Adobe Illustrator 21.0.0, SVG Export Plug-In . SVG Version: 6.00 Build 0)  -->
<svg version="1.1" id="Ebene_1" xmlns="http://www.w3.org/2000/svg" xmlns:xlink="http://www.w3.org/1999/xlink" x="0px" y="0px"
	 viewBox="0 0 640 480" style="enable-background:new 0 0 640 480;" xml:space="preserve">
<style type="text/css">
	.st0{fill:#214F7A;}
	.st1{fill:#2F76B7;}
	.st2{fill:#5B9AD3;}
	.st3{fill:none;stroke:#000100;stroke-width:3.9153;stroke-linecap:round;stroke-linejoin:round;stroke-miterlimit:10;}
</style>
<g>
	<g id="Source">
		<g>
			<path d="M93.7,293.2H53.5v-7.7h89.2v7.7h-40.2v118.5h-8.8V293.2z"/>
			<path d="M227.3,368.5h-50l-14.9,43.2h-8.8L198,285.6h8.8l44.4,126.1H242L227.3,368.5z M224.8,361l-8-23.5
				c-2.6-7.5-5-14.7-7.3-21.6c-2.3-6.9-4.5-14.2-6.7-22H202c-2.2,7.8-4.4,15.1-6.7,22c-2.3,6.9-4.7,14.1-7.3,21.6l-8,23.5H224.8z"/>
			<path d="M282.8,285.6h34.5c7,0,13.3,0.6,18.9,1.8c5.6,1.2,10.3,3.2,14.2,6c3.9,2.8,6.9,6.4,8.9,10.9c2,4.5,3.1,10,3.1,16.5
				c0,12.4-4,21.6-11.9,27.7c-7.9,6.1-18.9,9.1-33.1,9.1h-25.6v54.2h-8.8V285.6z M315.2,350.1c12.9,0,22.5-2.3,28.7-6.9
				c6.3-4.6,9.4-12.1,9.4-22.4c0-5.4-0.8-9.8-2.4-13.3c-1.6-3.5-4-6.3-7.1-8.5c-3.1-2.2-7.1-3.7-11.9-4.6
				c-4.8-0.9-10.4-1.3-16.7-1.3h-23.5v57H315.2z"/>
			<path d="M448.4,368.5h-50l-14.9,43.2h-8.8l44.4-126.1h8.8l44.4,126.1h-9.2L448.4,368.5z M445.9,361l-8-23.5
				c-2.6-7.5-5-14.7-7.3-21.6c-2.3-6.9-4.5-14.2-6.7-22h-0.8c-2.2,7.8-4.4,15.1-6.7,22c-2.3,6.9-4.7,14.1-7.3,21.6l-8,23.5H445.9z"
				/>
			<path d="M499.9,388.9c4.6,5.2,10.1,9.4,16.5,12.4c6.4,3.1,13.2,4.6,20.5,4.6c9.7,0,17.4-2.3,23-7c5.6-4.7,8.4-10.7,8.4-18.3
				c0-4-0.6-7.3-1.8-10c-1.2-2.7-2.8-5-4.9-7c-2-2-4.4-3.7-7.2-5.2c-2.7-1.5-5.6-2.9-8.7-4.3l-19.1-8.6c-2.8-1.1-5.7-2.6-8.7-4.2
				c-3-1.7-5.7-3.7-8.2-6.2s-4.6-5.4-6.2-8.8c-1.7-3.4-2.5-7.4-2.5-12.2c0-4.6,0.9-8.8,2.8-12.5c1.8-3.8,4.4-7,7.7-9.8
				c3.3-2.7,7.1-4.9,11.7-6.4c4.5-1.5,9.4-2.3,14.6-2.3c7.7,0,14.5,1.5,20.4,4.5c5.9,3,10.8,6.5,14.6,10.6l-5,5.9
				c-3.7-4-8-7.1-13-9.5c-5-2.4-10.7-3.5-17-3.5c-8.4,0-15.2,2-20.3,6.1c-5.1,4.1-7.7,9.6-7.7,16.5c0,3.7,0.7,6.8,2.1,9.4
				c1.4,2.6,3.2,4.8,5.4,6.6c2.2,1.9,4.5,3.4,7.1,4.8c2.6,1.3,5,2.5,7.3,3.5l19.1,8.4c3.6,1.5,7,3.3,10.1,5.2c3.2,1.9,6,4.1,8.4,6.7
				c2.4,2.6,4.4,5.6,5.8,9.1c1.5,3.5,2.2,7.7,2.2,12.5c0,4.9-1,9.3-2.9,13.5c-1.9,4.1-4.6,7.7-8.1,10.7c-3.5,3-7.8,5.4-12.7,7.1
				c-5,1.7-10.5,2.6-16.7,2.6c-9.2,0-17.4-1.8-24.5-5.3c-7.1-3.5-13.2-8.1-18.2-13.7L499.9,388.9z"/>
		</g>
	</g>
	<g id="ICON_2_">
		<g id="dishes_2_">
			
				<ellipse transform="matrix(0.2095 -0.9778 0.9778 0.2095 121.505 494.8313)" class="st0" cx="366.8" cy="172.3" rx="17.6" ry="17.6"/>
			
				<ellipse transform="matrix(0.2095 -0.9778 0.9778 0.2095 188.2713 486.7368)" class="st0" cx="395.2" cy="126.9" rx="17.6" ry="17.6"/>
			
				<ellipse transform="matrix(0.2095 -0.9778 0.9778 0.2095 242.5826 518.7456)" class="st0" cx="442.1" cy="109.3" rx="17.6" ry="17.6"/>
			
				<ellipse transform="matrix(0.2095 -0.9778 0.9778 0.2095 282.3108 575.9282)" class="st0" cx="497.4" cy="113.4" rx="17.6" ry="17.6"/>
			
				<ellipse transform="matrix(0.2095 -0.9778 0.9778 0.2095 285.9698 642.7241)" class="st0" cx="540.5" cy="144.5" rx="17.6" ry="17.6"/>
			
				<ellipse transform="matrix(0.2095 -0.9778 0.9778 0.2095 232.413 683.1216)" class="st0" cx="538.7" cy="197.8" rx="17.6" ry="17.6"/>
			
				<ellipse transform="matrix(0.2095 -0.9778 0.9778 0.2095 185.0384 613.0575)" class="st0" cx="471.7" cy="192.1" rx="17.6" ry="17.6"/>
			
				<ellipse transform="matrix(0.2095 -0.9778 0.9778 0.2095 118.3419 571.4955)" class="st0" cx="412.6" cy="212.6" rx="17.6" ry="17.6"/>
			
				<ellipse transform="matrix(0.2096 -0.9778 0.9778 0.2096 151.0178 461.1986)" class="st1" cx="360.8" cy="137.2" rx="12.6" ry="12.6"/>
			
				<ellipse transform="matrix(0.2095 -0.9778 0.9778 0.2095 236.233 626.0587)" class="st1" cx="505.3" cy="166.9" rx="15.3" ry="15.3"/>
			
				<ellipse transform="matrix(0.2095 -0.9778 0.9778 0.2095 144.8439 604.2764)" class="st2" cx="446.2" cy="212.6" rx="10" ry="10.1"/>
			
				<ellipse transform="matrix(0.2095 -0.9778 0.9778 0.2095 197.4087 654.2153)" class="st2" cx="503.3" cy="205" rx="10" ry="10.1"/>
			
				<ellipse transform="matrix(0.2095 -0.9778 0.9778 0.2095 274.3994 682.9359)" class="st2" cx="559.6" cy="171.8" rx="10" ry="10.1"/>
			
				<ellipse transform="matrix(0.2095 -0.9778 0.9778 0.2095 308.4748 608.5717)" class="st2" cx="530.6" cy="113.5" rx="10" ry="10.1"/>
			
				<ellipse transform="matrix(0.2095 -0.9778 0.9778 0.2095 197.3016 538.9368)" class="st1" cx="432" cy="147.4" rx="15.3" ry="15.3"/>
			
				<ellipse transform="matrix(0.2095 -0.9778 0.9778 0.2095 282.3241 536.041)" class="st2" cx="472.7" cy="93.4" rx="10" ry="10.1"/>
			
				<ellipse transform="matrix(0.2095 -0.9778 0.9778 0.2095 161.8621 575.1689)" class="st2" cx="436.7" cy="187.5" rx="10" ry="10.1"/>
			
				<ellipse transform="matrix(0.2095 -0.9778 0.9778 0.2095 228.5293 479.2553)" class="st2" cx="410.7" cy="98.3" rx="10" ry="10.1"/>
			
				<ellipse transform="matrix(0.2095 -0.9778 0.9778 0.2095 157.6202 518.3828)" class="st2" cx="399.4" cy="161.7" rx="10" ry="10.1"/>
			
				<ellipse transform="matrix(0.2095 -0.9778 0.9778 0.2095 236.1831 566.386)" class="st1" cx="468.4" cy="137.1" rx="12.6" ry="12.6"/>
		</g>
		<path class="st3" d="M385.3,204.1c-26.2,12.3-75.1-34.2-33.9-85.8c41.2-51.5,115.7-48.6,152-37.8c46.8,13.9,66.9,43.8,73.9,82.4
			c2,10.8,9.3,70.3-64.3,59.5c-36-5.3-49.8-0.4-61,6.7c-36.1,23-76.4,8.2-68.3-20.8c7-25.2,42.6-35.2,54.7-40.2
			c19-7.7,40.1-8.7,45.6-11.8"/>
	</g>
</g>
</svg>
