<?xml version="1.0" encoding="utf-8"?>
<!-- Generator: Adobe Illustrator 21.0.0, SVG Export Plug-In . SVG Version: 6.00 Build 0)  -->
<svg version="1.1" id="Ebene_1" xmlns="http://www.w3.org/2000/svg" xmlns:xlink="http://www.w3.org/1999/xlink" x="0px" y="0px"
	 viewBox="0 0 541.981 407.23" enable-background="new 0 0 541.981 407.23" xml:space="preserve">
<g>
	<g id="Source">
		<g>
			<path d="M40.198,221.206H0v-7.654h89.2v7.654H49.002v118.456h-8.805V221.206z"/>
			<path d="M173.804,296.413h-49.959l-14.931,43.249h-8.805l44.408-126.11h8.805l44.408,126.11h-9.188L173.804,296.413z
				 M171.316,288.949l-8.04-23.538c-2.554-7.525-4.976-14.735-7.274-21.624c-2.297-6.889-4.532-14.224-6.7-22.007h-0.765
				c-2.171,7.783-4.403,15.118-6.699,22.007c-2.297,6.889-4.723,14.099-7.274,21.624l-8.039,23.538H171.316z"/>
			<path d="M229.311,213.552h34.455c7.017,0,13.303,0.607,18.854,1.818c5.552,1.214,10.271,3.223,14.165,6.028
				c3.891,2.807,6.857,6.443,8.901,10.908c2.039,4.466,3.063,9.951,3.063,16.457c0,12.375-3.957,21.595-11.868,27.653
				c-7.914,6.061-18.95,9.089-33.115,9.089h-25.65v54.157h-8.805V213.552z M261.661,278.041c12.887,0,22.458-2.296,28.712-6.889
				c6.251-4.592,9.379-12.056,9.379-22.389c0-5.359-0.798-9.79-2.393-13.3c-1.597-3.507-3.957-6.345-7.082-8.516
				c-3.129-2.168-7.083-3.699-11.868-4.593c-4.785-0.89-10.37-1.339-16.749-1.339h-23.544v57.026H261.661z"/>
			<path d="M394.886,296.413h-49.959l-14.931,43.249h-8.805l44.408-126.11h8.805l44.408,126.11h-9.188L394.886,296.413z
				 M392.398,288.949l-8.04-23.538c-2.554-7.525-4.976-14.735-7.274-21.624c-2.297-6.889-4.532-14.224-6.7-22.007h-0.765
				c-2.171,7.783-4.403,15.118-6.699,22.007c-2.297,6.889-4.723,14.099-7.274,21.624l-8.039,23.538H392.398z"/>
			<path d="M446.374,316.889c4.594,5.233,10.078,9.378,16.462,12.439c6.379,3.061,13.207,4.592,20.482,4.592
				c9.696,0,17.353-2.326,22.97-6.984c5.614-4.656,8.422-10.747,8.422-18.276c0-3.953-0.607-7.272-1.818-9.951
				c-1.214-2.679-2.841-5.005-4.881-6.985c-2.042-1.976-4.435-3.698-7.178-5.167c-2.746-1.465-5.647-2.9-8.71-4.305l-19.142-8.611
				c-2.808-1.149-5.712-2.551-8.709-4.211c-3-1.656-5.743-3.732-8.231-6.219s-4.564-5.421-6.221-8.803
				c-1.661-3.379-2.489-7.43-2.489-12.151c0-4.593,0.925-8.771,2.775-12.535c1.849-3.761,4.403-7.015,7.657-9.76
				c3.254-2.741,7.145-4.88,11.676-6.41c4.529-1.531,9.409-2.297,14.643-2.297c7.656,0,14.452,1.501,20.386,4.497
				c5.934,2.999,10.814,6.54,14.642,10.621l-4.976,5.933c-3.703-3.953-8.04-7.111-13.016-9.473c-4.977-2.36-10.657-3.54-17.036-3.54
				c-8.423,0-15.188,2.042-20.29,6.123c-5.106,4.085-7.657,9.568-7.657,16.458c0,3.701,0.699,6.826,2.105,9.377
				c1.403,2.553,3.189,4.755,5.36,6.602c2.168,1.851,4.529,3.445,7.083,4.784c2.551,1.34,4.976,2.521,7.273,3.541l19.142,8.419
				c3.571,1.531,6.954,3.254,10.145,5.167c3.188,1.914,5.996,4.148,8.422,6.698c2.423,2.553,4.37,5.583,5.838,9.09
				c1.466,3.51,2.202,7.688,2.202,12.534c0,4.85-0.957,9.347-2.872,13.492c-1.914,4.147-4.626,7.72-8.134,10.716
				c-3.511,2.999-7.753,5.359-12.73,7.081c-4.976,1.722-10.527,2.583-16.652,2.583c-9.188,0-17.356-1.755-24.501-5.262
				c-7.149-3.507-13.208-8.067-18.184-13.683L446.374,316.889z"/>
		</g>
	</g>
	<g id="ICON_2_">
		<g id="dishes_2_">
			
				<ellipse transform="matrix(0.2095 -0.9778 0.9778 0.2095 149.6577 385.5709)" fill="#214F7A" cx="313.3" cy="100.224" rx="17.583" ry="17.588"/>
			
				<ellipse transform="matrix(0.2095 -0.9778 0.9778 0.2095 216.4241 377.4766)" fill="#214F7A" cx="341.678" cy="54.882" rx="17.583" ry="17.587"/>
			
				<ellipse transform="matrix(0.2095 -0.9778 0.9778 0.2095 270.7347 409.4839)" fill="#214F7A" cx="388.624" cy="37.298" rx="17.583" ry="17.587"/>
			
				<ellipse transform="matrix(0.2095 -0.9778 0.9778 0.2095 310.4634 466.6678)" fill="#214F7A" cx="443.86" cy="41.316" rx="17.583" ry="17.588"/>
			
				<ellipse transform="matrix(0.2095 -0.9778 0.9778 0.2095 314.1227 533.4641)" fill="#214F7A" cx="487.005" cy="72.45" rx="17.583" ry="17.587"/>
			
				<ellipse transform="matrix(0.2095 -0.9778 0.9778 0.2095 260.5646 573.8589)" fill="#214F7A" cx="485.198" cy="125.778" rx="17.584" ry="17.588"/>
			
				<ellipse transform="matrix(0.2095 -0.9778 0.9778 0.2095 213.1921 503.7993)" fill="#214F7A" cx="418.199" cy="120.039" rx="17.583" ry="17.588"/>
			
				<ellipse transform="matrix(0.2095 -0.9778 0.9778 0.2095 146.4956 462.2372)" fill="#214F7A" cx="359.144" cy="140.51" rx="17.584" ry="17.588"/>
			
				<ellipse transform="matrix(0.2096 -0.9778 0.9778 0.2096 179.1719 351.9412)" fill="#2F76B7" cx="307.266" cy="65.151" rx="12.56" ry="12.563"/>
			
				<ellipse transform="matrix(0.2095 -0.9778 0.9778 0.2095 264.3863 516.7995)" fill="#2F76B7" cx="451.833" cy="94.877" rx="15.258" ry="15.262"/>
			
				<ellipse transform="matrix(0.2095 -0.9778 0.9778 0.2095 172.9975 495.0179)" fill="#5B9AD3" cx="392.67" cy="140.509" rx="10.048" ry="10.05"/>
			
				<ellipse transform="matrix(0.2095 -0.9778 0.9778 0.2095 225.5605 544.9529)" fill="#5B9AD3" cx="449.819" cy="132.973" rx="10.048" ry="10.05"/>
			
				<ellipse transform="matrix(0.2095 -0.9778 0.9778 0.2095 302.5514 573.674)" fill="#5B9AD3" cx="506.08" cy="99.716" rx="10.049" ry="10.05"/>
			
				<ellipse transform="matrix(0.2095 -0.9778 0.9778 0.2095 336.6266 499.3094)" fill="#5B9AD3" cx="477.123" cy="41.46" rx="10.048" ry="10.05"/>
			
				<ellipse transform="matrix(0.2095 -0.9778 0.9778 0.2095 225.455 429.6778)" fill="#2F76B7" cx="378.483" cy="75.395" rx="15.258" ry="15.262"/>
			
				<ellipse transform="matrix(0.2095 -0.9778 0.9778 0.2095 310.4777 426.7826)" fill="#5B9AD3" cx="419.206" cy="21.359" rx="10.048" ry="10.05"/>
			
				<ellipse transform="matrix(0.2095 -0.9778 0.9778 0.2095 190.0139 465.9067)" fill="#5B9AD3" cx="383.158" cy="115.435" rx="10.049" ry="10.05"/>
			
				<ellipse transform="matrix(0.2095 -0.9778 0.9778 0.2095 256.683 369.9969)" fill="#5B9AD3" cx="357.186" cy="26.239" rx="10.049" ry="10.05"/>
			
				<ellipse transform="matrix(0.2095 -0.9778 0.9778 0.2095 185.7716 409.1197)" fill="#5B9AD3" cx="345.913" cy="89.666" rx="10.048" ry="10.051"/>
			
				<ellipse transform="matrix(0.2095 -0.9778 0.9778 0.2095 264.3347 457.1234)" fill="#2F76B7" cx="414.885" cy="65.078" rx="12.559" ry="12.562"/>
		</g>
		
			<path fill="none" stroke="#000100" stroke-width="3.9153" stroke-linecap="round" stroke-linejoin="round" stroke-miterlimit="10" d="
			M331.777,132.028c-26.156,12.343-75.122-34.244-33.857-85.801C339.164-5.304,413.621-2.385,449.902,8.398
			c46.753,13.895,66.937,43.821,73.946,82.362c1.958,10.766,9.266,70.317-64.251,59.541c-35.96-5.271-49.788-0.407-61.018,6.749
			c-36.115,23.017-76.35,8.239-68.278-20.842c7.005-25.235,42.558-35.25,54.657-40.157c18.982-7.698,40.067-8.668,45.627-11.837"/>
	</g>
</g>
<text transform="matrix(1 0 0 1 3.051758e-05 399.5651)" font-family="'SourceSansPro-Semibold'" font-size="21.7152px">Translational Algorithms for Psychiatry Advancing Science</text>
</svg>
